<svg width="33" height="40" viewBox="0 0 33 40" fill="none" xmlns="http://www.w3.org/2000/svg">
<path d="M1.77487 0.367877C1.42576 -0.0600706 0.795825 -0.12398 0.367877 0.225132C-0.0600706 0.574243 -0.12398 1.20417 0.225132 1.63212L1.77487 0.367877ZM31.2248 39.6321C31.5739 40.0601 32.2038 40.124 32.6318 39.7749C33.0597 39.4258 33.1236 38.7958 32.7745 38.3679L31.2248 39.6321ZM0.225132 1.63212L31.2248 39.6321L32.7745 38.3679L1.77487 0.367877L0.225132 1.63212Z" fill="white"/>
<path d="M31.2251 0.367877C31.5742 -0.0600706 32.2042 -0.12398 32.6321 0.225132C33.0601 0.574243 33.124 1.20417 32.7749 1.63212L31.2251 0.367877ZM1.77521 39.6321C1.42609 40.0601 0.796164 40.124 0.368216 39.7749C-0.0597324 39.4258 -0.123642 38.7958 0.22547 38.3679L1.77521 39.6321ZM32.7749 1.63212L1.77521 39.6321L0.22547 38.3679L31.2251 0.367877L32.7749 1.63212Z" fill="white"/>
</svg>
