<svg width="103" height="104" viewBox="0 0 103 104" fill="none" xmlns="http://www.w3.org/2000/svg">
<path d="M27.2561 24.2142L27.4344 23.8525L27.4344 23.8524C28.3285 22.0389 29.6084 19.4426 30.8099 17.0055C31.5172 15.5707 32.1973 14.1911 32.7555 13.0589L35.3703 7.75452L35.5908 6.20272L35.5909 6.20245C35.7994 4.73616 35.7734 4.49532 35.6999 4.12908C35.3943 2.60824 33.7701 1.56966 32.2809 1.9204L27.2561 24.2142ZM27.2561 24.2142L28.4776 15.6592C28.9723 12.195 29.4254 9.139 29.7713 6.91251C29.9444 5.79817 30.0896 4.89799 30.1993 4.26055C30.2544 3.94043 30.2988 3.69669 30.332 3.52915C30.339 3.49396 30.3451 3.46427 30.3503 3.43959C30.4877 3.17369 30.7439 2.84949 31.1081 2.54894C31.5153 2.21295 31.9453 1.9995 32.2808 1.92042L27.2561 24.2142ZM51.0174 2.9065C50.219 2.18525 49.0671 1.97603 48.2586 2.26516L51.0174 2.9065ZM51.0174 2.9065C51.3102 3.17109 51.5978 3.62088 51.7702 4.16582C51.9446 4.71741 51.9472 5.19356 51.8696 5.48115C51.8699 5.48001 51.8699 5.48011 51.8694 5.48158C51.8668 5.49006 51.8496 5.54435 51.7995 5.66961C51.7439 5.80868 51.6606 6.0037 51.538 6.27647C51.2926 6.82205 50.9115 7.63057 50.3284 8.83734C49.1638 11.2476 47.22 15.192 44.0076 21.6826L44.0076 21.6827L39.4085 30.9756L38.1612 33.4959L40.9732 33.5019L59.6493 33.5415L78.823 33.9219C79.1572 34.0934 79.6211 34.3736 79.9297 34.6086L79.9297 34.6086C81.8772 36.092 82.4936 38.7289 81.4276 40.884C81.4282 40.8827 81.4285 40.8821 81.4284 40.882C81.4274 40.8815 81.3886 40.9469 81.2738 41.116C81.1479 41.3014 80.9704 41.5541 80.7411 41.8736C80.2836 42.5111 79.6408 43.3857 78.8365 44.465C77.2291 46.622 74.9929 49.5749 72.3395 53.0396L73.7289 54.1036L72.3395 53.0396C69.9256 56.1915 67.7308 59.0651 66.139 61.1559C65.3433 62.2011 64.6973 63.0519 64.2496 63.6446C64.0262 63.9404 63.8501 64.1747 63.729 64.3374C63.6691 64.4178 63.6187 64.4861 63.5815 64.5374C63.5642 64.5614 63.5424 64.5917 63.5221 64.6214C63.5137 64.6336 63.4931 64.6637 63.4701 64.7008C63.4605 64.7162 63.4335 64.7599 63.4034 64.8175C63.3894 64.8443 63.3587 64.9044 63.3271 64.9839L63.326 64.9867C63.3124 65.0196 63.2036 65.283 63.2036 65.6299C63.2036 65.9738 63.3079 66.229 63.332 66.2879L63.3332 66.291C63.3723 66.3869 63.4117 66.459 63.4317 66.4943C63.4732 66.5674 63.5111 66.6218 63.5253 66.6419C63.5583 66.6888 63.5875 66.7254 63.5981 66.7386C63.6244 66.7715 63.6505 66.802 63.6674 66.8217C63.705 66.8653 63.7533 66.9199 63.807 66.9799C63.9164 67.1023 64.0737 67.2759 64.2712 67.4924C64.6673 67.9268 65.2381 68.5482 65.9401 69.3095C67.3446 70.8328 69.2807 72.9233 71.4097 75.2137L71.4097 75.2137C73.5343 77.4992 75.5185 79.6559 77.003 81.2884C77.7458 82.1052 78.3603 82.7874 78.8037 83.2876C79.026 83.5383 79.2008 83.7383 79.3255 83.8843C79.4356 84.0132 79.4742 84.0628 79.4749 84.0622C79.4749 84.0622 79.4749 84.0622 79.4749 84.0622C80.716 85.9336 80.4232 88.8011 78.7822 90.4213L78.7821 90.4213C76.9055 92.2742 73.9875 92.4518 71.9332 90.8683C71.9463 90.8784 71.9426 90.8748 71.916 90.8494C71.8825 90.8173 71.8128 90.7507 71.6953 90.6333C71.5081 90.4463 71.2546 90.1868 70.941 89.8611C70.315 89.2111 69.47 88.319 68.4777 87.2625C66.4943 85.1505 63.9365 82.3965 61.3954 79.6412C58.8543 76.8858 56.3333 74.1329 54.4233 72.0231C53.4677 70.9675 52.6688 70.0771 52.098 69.4295C51.8118 69.1047 51.589 68.8479 51.4345 68.6646C51.3713 68.5897 51.3246 68.533 51.292 68.4925C50.5572 67.0717 50.5227 65.2972 51.2195 63.8146C51.2278 63.8022 51.2385 63.7862 51.252 63.7664C51.311 63.6801 51.3983 63.5561 51.5147 63.3934C51.7465 63.0698 52.0745 62.6205 52.4813 62.0688C53.294 60.9668 54.4073 59.4752 55.6638 57.8038C58.1768 54.461 61.2525 50.4118 63.6216 47.3446L63.6217 47.3444L64.1365 46.6778L66.3001 43.876L62.7602 43.8582C61.0933 43.8499 58.7487 44.015 56.1406 44.1987C55.5658 44.2392 54.9781 44.2806 54.3821 44.3213C51.0281 44.5499 47.3106 44.7638 43.7612 44.7125C40.1893 44.661 36.9132 44.3411 34.4023 43.5617C31.8598 42.7725 30.4971 41.6453 30.0305 40.26L30.0304 40.2598M51.0174 2.9065L30.0304 40.2598M30.0304 40.2598C29.9208 39.9344 29.8336 39.4015 29.8206 38.7926C29.8081 38.2121 29.8662 37.7097 29.951 37.395C29.9585 37.3785 29.9856 37.313 30.0483 37.1737C30.1361 36.9786 30.2624 36.706 30.4248 36.3608C30.749 35.6721 31.2061 34.7185 31.7637 33.5673C32.8784 31.266 34.3871 28.1904 36.0205 24.8967C39.2908 18.3023 42.9878 10.8222 44.236 8.27439C44.8542 7.0123 45.4661 5.79656 45.9527 4.8567C46.1964 4.38603 46.4055 3.99064 46.5666 3.69581C46.6955 3.45991 46.7681 3.33618 46.7956 3.28938C46.8076 3.26893 46.811 3.26316 46.8067 3.26913L45.3874 2.24585L46.8065 3.26932M30.0304 40.2598L46.8065 3.26932M46.8065 3.26932C47.1127 2.84473 47.4954 2.53828 48.2585 2.26521L46.8065 3.26932ZM30.3736 3.33799C30.3736 3.33852 30.3718 3.34595 30.3682 3.3588C30.3718 3.34388 30.3736 3.33745 30.3736 3.33799ZM51.244 68.4306C51.2441 68.4305 51.2479 68.4355 51.2544 68.4447C51.2471 68.4352 51.2439 68.4307 51.244 68.4306ZM7.45627 28.0202L7.45641 28.0202C10.7829 26.3287 15.016 26.8768 17.9601 29.2525C23.0314 33.3451 22.4988 41.7858 16.9786 45.1265L17.8847 46.6237L16.9786 45.1265C11.2913 48.5685 4.15 45.7558 2.31454 39.3211C1.07478 34.9742 3.38334 30.0907 7.45627 28.0202ZM58.3707 101.142C58.2991 101.135 58.2504 101.129 58.2193 101.125C58.1189 101.072 58.0687 101.036 58.0471 101.017C58.0351 100.983 58.0091 100.888 57.9961 100.685L56.2496 100.796L57.9961 100.685C57.9876 100.552 57.9948 100.467 58.003 100.417C58.0106 100.372 58.0193 100.354 58.0202 100.352L58.0202 100.352C58.0204 100.352 58.0212 100.35 58.0243 100.346C58.0275 100.341 58.0329 100.334 58.042 100.325C58.0498 100.317 58.0613 100.306 58.0775 100.293C58.0899 100.291 58.1034 100.29 58.1179 100.289C58.4776 100.255 59.181 100.227 60.6362 100.209C63.513 100.171 69.0814 100.17 80.1007 100.17L100.682 100.169V100.715V101.262H80.2586C69.2857 101.262 63.757 101.261 60.8934 101.223C59.4461 101.204 58.741 101.176 58.3707 101.142ZM58.0333 101.004C58.0331 101.004 58.0354 101.006 58.039 101.01C58.0351 101.007 58.0334 101.005 58.0333 101.004ZM58.0514 101.029C58.0529 101.031 58.0536 101.033 58.0535 101.033C58.0534 101.033 58.0526 101.032 58.0514 101.029Z" stroke="#D76238" stroke-width="3.5"/>
</svg>
