<svg width="77" height="42" viewBox="0 0 77 42" fill="none" xmlns="http://www.w3.org/2000/svg">
<path d="M45.0104 0.141976V1.10198C43.9224 1.13398 43.0904 1.26198 42.5144 1.48598C41.9704 1.67798 41.6024 2.06198 41.4104 2.63798C41.2184 3.18197 41.1224 4.04597 41.1224 5.22997V29.038C41.1224 30.19 41.2184 31.054 41.4104 31.63C41.6024 32.206 41.9704 32.59 42.5144 32.782C43.0904 32.974 43.9224 33.102 45.0104 33.166V34.126C44.3384 34.062 43.4584 34.03 42.3704 34.03C41.2824 33.998 40.1144 33.982 38.8664 33.982C37.6504 33.982 36.3384 34.014 34.9304 34.078C33.5544 34.11 32.0184 34.126 30.3224 34.126C29.3304 34.126 28.3704 34.11 27.4424 34.078C26.5464 34.046 25.7144 34.03 24.9464 34.03C24.2104 33.998 23.5384 33.982 22.9304 33.982C22.0344 33.982 20.9304 34.014 19.6184 34.078C18.3064 34.11 16.8824 34.126 15.3464 34.126C13.5864 34.126 12.0344 34.11 10.6904 34.078C9.34643 34.014 8.06643 33.982 6.85043 33.982C5.60243 33.982 4.43443 33.998 3.34643 34.03C2.25843 34.03 1.37843 34.062 0.70643 34.126V33.166C1.79443 33.102 2.61043 32.974 3.15443 32.782C3.73043 32.59 4.11443 32.206 4.30643 31.63C4.49843 31.054 4.59443 30.19 4.59443 29.038V5.22997C4.59443 4.04597 4.49843 3.18197 4.30643 2.63798C4.11443 2.06198 3.73043 1.67798 3.15443 1.48598C2.61043 1.26198 1.79443 1.13398 0.70643 1.10198V0.141976C1.37843 0.173976 2.25843 0.205976 3.34643 0.237975C4.43443 0.269975 5.60243 0.285975 6.85043 0.285975C7.87443 0.285975 8.88243 0.269975 9.87443 0.237975C10.8984 0.205976 11.7624 0.173976 12.4664 0.141976V1.10198C11.5064 1.13398 10.7864 1.26198 10.3064 1.48598C9.82643 1.67798 9.49043 2.06198 9.29843 2.63798C9.13843 3.18197 9.05843 4.04597 9.05843 5.22997V29.038C9.05843 30.19 9.15443 31.07 9.34643 31.678C9.53843 32.254 9.90643 32.654 10.4504 32.878C11.0264 33.07 11.8584 33.166 12.9464 33.166H16.7384C17.8264 33.166 18.6424 33.07 19.1864 32.878C19.7624 32.654 20.1464 32.254 20.3384 31.678C20.5304 31.07 20.6264 30.19 20.6264 29.038V5.22997C20.6264 4.04597 20.5464 3.18197 20.3864 2.63798C20.2264 2.06198 19.9064 1.67798 19.4264 1.48598C18.9464 1.26198 18.2104 1.13398 17.2184 1.10198V0.141976C17.9224 0.173976 18.7864 0.205976 19.8104 0.237975C20.8344 0.269975 21.8424 0.285975 22.8344 0.285975C23.9864 0.285975 25.0584 0.269975 26.0504 0.237975C27.0744 0.205976 27.8904 0.173976 28.4984 0.141976V1.10198C27.5384 1.13398 26.8024 1.26198 26.2904 1.48598C25.8104 1.67798 25.4904 2.06198 25.3304 2.63798C25.1704 3.18197 25.0904 4.04597 25.0904 5.22997V29.038C25.0904 30.19 25.1864 31.07 25.3784 31.678C25.5704 32.254 25.9384 32.654 26.4824 32.878C27.0584 33.07 27.8904 33.166 28.9784 33.166H32.7704C33.8584 33.166 34.6744 33.07 35.2184 32.878C35.7944 32.654 36.1784 32.254 36.3704 31.678C36.5624 31.07 36.6584 30.19 36.6584 29.038V5.22997C36.6584 4.04597 36.5784 3.18197 36.4184 2.63798C36.2584 2.06198 35.9384 1.67798 35.4584 1.48598C34.9784 1.26198 34.2424 1.13398 33.2504 1.10198V0.141976C33.9544 0.173976 34.8184 0.205976 35.8424 0.237975C36.8664 0.269975 37.8744 0.285975 38.8664 0.285975C40.1144 0.285975 41.2824 0.269975 42.3704 0.237975C43.4584 0.205976 44.3384 0.173976 45.0104 0.141976ZM74.8106 0.141976V1.10198C73.7226 1.13398 72.8906 1.26198 72.3146 1.48598C71.7706 1.67798 71.4026 2.06198 71.2106 2.63798C71.0186 3.18197 70.9226 4.04597 70.9226 5.22997V29.038C70.9226 30.19 71.0186 31.07 71.2106 31.678C71.4026 32.254 71.7706 32.654 72.3146 32.878C72.8906 33.07 73.7226 33.166 74.8106 33.166H76.2986C76.1706 34.286 76.0746 35.374 76.0106 36.43C75.9786 37.486 75.9626 38.286 75.9626 38.83C75.9626 39.406 75.9786 39.95 76.0106 40.462C76.0426 41.006 76.0746 41.454 76.1066 41.806H75.0026C74.8106 39.918 74.5386 38.414 74.1866 37.294C73.8346 36.174 73.2266 35.358 72.3626 34.846C71.5306 34.366 70.2666 34.126 68.5706 34.126H54.8906C53.1946 34.126 51.9146 34.366 51.0506 34.846C50.2186 35.358 49.6266 36.174 49.2746 37.294C48.9546 38.414 48.6826 39.918 48.4586 41.806H47.3546C47.4186 41.454 47.4506 41.006 47.4506 40.462C47.4826 39.95 47.4986 39.406 47.4986 38.83C47.4986 38.286 47.4666 37.486 47.4026 36.43C47.3706 35.374 47.2906 34.286 47.1626 33.166H62.5706C63.6586 33.166 64.4746 33.07 65.0186 32.878C65.5946 32.654 65.9786 32.254 66.1706 31.678C66.3626 31.07 66.4586 30.19 66.4586 29.038V5.22997C66.4586 4.04597 66.3626 3.16597 66.1706 2.58998C65.9786 2.01398 65.5946 1.62998 65.0186 1.43797C64.4746 1.21397 63.6586 1.10198 62.5706 1.10198H61.9466C60.8266 1.10198 60.0106 1.21397 59.4986 1.43797C58.9866 1.62998 58.6506 2.02998 58.4906 2.63798C58.3306 3.21398 58.1866 4.07798 58.0586 5.22997C57.8986 7.05398 57.7386 9.02198 57.5786 11.134C57.4506 13.246 57.2746 15.39 57.0506 17.566C56.8266 19.71 56.5066 21.774 56.0906 23.758C55.7066 25.71 55.1786 27.47 54.5066 29.038C53.8346 30.574 52.9706 31.806 51.9146 32.734C50.8586 33.63 49.5626 34.078 48.0266 34.078V33.166C49.4986 33.166 50.7306 32.622 51.7226 31.534C52.7146 30.414 53.5146 28.91 54.1226 27.022C54.7626 25.134 55.2586 22.99 55.6106 20.59C55.9626 18.158 56.2346 15.63 56.4266 13.006C56.6186 10.382 56.7946 7.78998 56.9546 5.22997C57.0186 4.10997 56.9546 3.26198 56.7626 2.68598C56.6026 2.10997 56.2346 1.70998 55.6586 1.48598C55.0826 1.26198 54.2186 1.13398 53.0666 1.10198V0.141976C53.7386 0.173976 54.5386 0.205976 55.4666 0.237975C56.3946 0.269975 57.2426 0.285975 58.0106 0.285975C58.7466 0.285975 59.4506 0.269975 60.1226 0.237975C60.8266 0.173976 61.5306 0.141976 62.2346 0.141976C63.4506 0.141976 64.5546 0.173976 65.5466 0.237975C66.5386 0.269975 67.7226 0.285975 69.0986 0.285975C69.7386 0.285975 70.4106 0.285975 71.1146 0.285975C71.8186 0.253975 72.4906 0.237975 73.1306 0.237975C73.8026 0.205976 74.3626 0.173976 74.8106 0.141976Z" fill="white"/>
</svg>
