<svg width="196" height="193" viewBox="0 0 196 193" fill="none" xmlns="http://www.w3.org/2000/svg">
<path d="M174.019 103.35L184.329 111.933L183.777 115.405L166.926 112.723L167.479 109.251L178.867 111.064L168.557 102.481L169.109 99.0089L185.96 101.691L185.407 105.163L174.019 103.35Z" fill="#D76238"/>
<path d="M160.793 134.727L158.377 133.429L164.195 122.6L166.611 123.898L160.793 134.727ZM166.117 124.816L160.016 121.539L161.58 118.627L167.77 121.74L166.117 124.816ZM159.595 136.956L153.628 133.405L155.153 130.566L161.264 133.849L159.595 136.956ZM174.323 139.801L171.897 138.497L175.785 131.261L178.211 132.564L174.323 139.801ZM173.136 142.01L158.106 133.935L159.764 130.848L174.794 138.923L173.136 142.01ZM178.416 132.182L176.752 135.279L170.847 131.588C169.869 130.982 169.033 130.391 168.34 129.815C167.651 129.25 167.073 128.7 166.606 128.165C166.136 127.638 165.751 127.125 165.451 126.627C165.158 126.132 164.927 125.653 164.759 125.191C164.598 124.732 164.473 124.287 164.384 123.858C164.302 123.433 164.234 123.024 164.179 122.631L165.133 120.855L167.548 122.153L167.177 122.845C167.235 123.133 167.349 123.465 167.52 123.84C167.687 124.223 167.961 124.645 168.342 125.107C168.727 125.58 169.257 126.095 169.933 126.653C170.605 127.218 171.464 127.831 172.511 128.491L178.416 132.182Z" fill="#D76238"/>
<path d="M146.639 151.548L144.708 149.602L151.153 143.204L153.085 145.15L146.639 151.548ZM162.359 156.121L150.338 144.013L152.833 141.536L164.854 153.645L162.359 156.121ZM152.673 155.945L150.79 154.049L156.395 148.485L158.278 150.381L152.673 155.945ZM156.737 161.703L154.797 159.748L161.234 153.358L163.174 155.312L156.737 161.703Z" fill="#D76238"/>
<path d="M141.131 172.673L132.78 157.794L135.835 156.079L144.187 170.957L141.131 172.673ZM136.553 175.242L135.205 172.841L147.345 166.026L148.693 168.428L136.553 175.242Z" fill="#D76238"/>
<path d="M102.244 176.643L102.044 173.908L110.926 173.256L111.127 175.991L102.244 176.643ZM110.595 182.998L109.346 165.981L112.852 165.724L114.102 182.74L110.595 182.998ZM100.252 183.757L99.0027 166.74L102.497 166.484L103.747 183.501L100.252 183.757Z" fill="#D76238"/>
<path d="M79.911 178.534L87.8521 165.942L91.4782 166.851L81.1793 181.86L78.8718 181.281L79.911 178.534ZM79.6111 163.876L80.684 178.727L80.3381 181.649L78.0079 181.065L75.9737 162.964L79.6111 163.876ZM78.2711 170.088L78.9408 167.417L87.682 169.609L87.0123 172.28L78.2711 170.088Z" fill="#D76238"/>
<path d="M51.0721 169.271L52.5076 166.921L59.0582 170.922L66.5163 158.711L69.5066 160.537L60.613 175.099L51.0721 169.271ZM61.8963 168.591L58.496 166.514C57.3492 165.814 56.4785 165.021 55.8839 164.136C55.2893 163.251 54.9783 162.329 54.951 161.369C54.9238 160.41 55.1891 159.473 55.7469 158.56C56.1704 157.866 56.684 157.31 57.2875 156.892C57.887 156.48 58.5584 156.212 59.3017 156.09C60.0342 155.969 60.8097 156.004 61.6282 156.192C62.4467 156.381 63.286 156.738 64.1461 157.263L69.5066 160.537L60.613 175.099L57.6028 173.26L65.067 161.039L62.7168 159.604C62.1434 159.253 61.6049 159.071 61.1012 159.056C60.5975 159.041 60.1444 159.154 59.7419 159.393C59.3287 159.635 58.9897 159.973 58.725 160.406C58.4725 160.82 58.3412 161.252 58.3309 161.703C58.3099 162.157 58.4271 162.595 58.6823 163.017C58.9376 163.438 59.3519 163.824 59.9253 164.174L63.3256 166.251L61.8963 168.591Z" fill="#D76238"/>
<path d="M36.366 144.667L36.9759 144.136C37.954 143.284 38.9474 142.653 39.956 142.241C40.9646 141.829 41.9533 141.626 42.9219 141.632C43.8846 141.643 44.8028 141.859 45.6763 142.279C46.5447 142.694 47.3329 143.307 48.0408 144.12C48.7436 144.928 49.2431 145.793 49.5392 146.716C49.8301 147.633 49.9174 148.572 49.8011 149.533C49.6789 150.499 49.3469 151.457 48.8051 152.405C48.2582 153.347 47.4957 154.244 46.5176 155.096L45.9077 155.627C44.9237 156.483 43.9303 157.115 42.9276 157.522C41.919 157.934 40.9303 158.137 39.9617 158.131C38.9879 158.119 38.0668 157.906 37.1984 157.491C36.3249 157.071 35.5367 156.457 34.8339 155.65C34.126 154.837 33.6266 153.971 33.3356 153.054C33.0395 152.131 32.9551 151.189 33.0824 150.229C33.2046 149.263 33.5392 148.309 34.0861 147.367C34.6221 146.423 35.382 145.524 36.366 144.667ZM39.3074 146.814L38.6799 147.36C37.9964 147.955 37.4493 148.541 37.0385 149.116C36.6277 149.691 36.3507 150.253 36.2075 150.803C36.0642 151.352 36.0556 151.877 36.1815 152.379C36.3015 152.886 36.5564 153.363 36.9463 153.811C37.3362 154.258 37.7738 154.577 38.2591 154.765C38.7334 154.953 39.2525 155.014 39.8164 154.948C40.3751 154.876 40.9676 154.676 41.5938 154.348C42.2201 154.02 42.875 153.559 43.5585 152.964L44.186 152.418C44.8636 151.828 45.4108 151.242 45.8274 150.662C46.2382 150.087 46.5182 149.522 46.6673 148.968C46.8105 148.418 46.8221 147.89 46.7021 147.384C46.5821 146.877 46.3271 146.4 45.9373 145.952C45.5474 145.504 45.1098 145.186 44.6245 144.997C44.1391 144.809 43.6171 144.75 43.0584 144.822C42.4938 144.9 41.8983 145.102 41.2721 145.43C40.6399 145.763 39.985 146.224 39.3074 146.814Z" fill="#D76238"/>
<path d="M29.9322 128.101L31.6259 132.105L29.1003 133.174L27.4067 129.169C27.1449 128.55 26.8312 128.089 26.4653 127.786C26.0923 127.486 25.6843 127.323 25.2413 127.299C24.7982 127.274 24.3464 127.359 23.8859 127.554C23.4182 127.752 23.021 128.026 22.6941 128.376C22.3673 128.726 22.1637 129.147 22.0834 129.64C22.0031 130.132 22.0938 130.687 22.3555 131.306L23.5744 134.187L36.7527 128.614L38.1222 131.851L22.4076 138.498L19.8192 132.379C19.2987 131.148 19.0759 130 19.1508 128.933C19.2153 127.862 19.5373 126.929 20.1166 126.133C20.6958 125.336 21.4855 124.726 22.4857 124.303C23.5002 123.874 24.477 123.737 25.4159 123.891C26.3549 124.045 27.213 124.48 27.9902 125.194C28.7645 125.902 29.4118 126.871 29.9322 128.101Z" fill="#D76238"/>
<path d="M24.1295 88.0503L14.1209 79.1174L14.7928 75.6666L31.5408 78.9274L30.8689 82.3782L19.5502 80.1745L29.5588 89.1073L28.8869 92.5582L12.1389 89.2973L12.8108 85.8465L24.1295 88.0503Z" fill="#D76238"/>
<path d="M38.3608 57.214L40.732 58.5913L34.5576 69.2212L32.1864 67.8439L38.3608 57.214ZM32.7103 66.942L38.6991 70.4206L37.0392 73.2782L30.9563 69.9617L32.7103 66.942ZM39.6322 55.0252L45.4781 58.7732L43.8594 61.5598L37.8605 58.0753L39.6322 55.0252ZM25.0067 51.6934L27.388 53.0766L23.2619 60.18L20.8806 58.7968L25.0067 51.6934ZM26.2663 49.5248L41.0204 58.0948L39.2605 61.1246L24.5064 52.5547L26.2663 49.5248ZM20.6628 59.1718L22.4286 56.1318L28.2081 60.0173C29.1659 60.655 29.9813 61.2732 30.6545 61.872C31.3248 62.4601 31.8842 63.029 32.3329 63.5787C32.7855 64.1216 33.1534 64.647 33.4366 65.1549C33.7131 65.6588 33.9277 66.1449 34.0804 66.613C34.2264 67.0773 34.3366 67.5252 34.411 67.957C34.4788 68.3848 34.5335 68.7961 34.5753 69.1908L33.5629 70.9337L31.1917 69.5564L31.5861 68.8775C31.5377 68.5874 31.4345 68.2519 31.2763 67.8709C31.1221 67.4831 30.862 67.052 30.4962 66.5775C30.1275 66.0923 29.6147 65.5596 28.958 64.9793C28.3051 64.3923 27.4666 63.7516 26.4424 63.0573L20.6628 59.1718Z" fill="#D76238"/>
<path d="M53.121 40.8075L54.981 42.8225L48.3075 48.9827L46.4475 46.9677L53.121 40.8075ZM37.5781 35.6662L49.1514 48.2037L46.5681 50.5883L34.9948 38.0508L37.5781 35.6662ZM47.2516 36.1941L49.0639 38.1573L43.2601 43.5147L41.4478 41.5515L47.2516 36.1941ZM43.3991 30.2929L45.267 32.3165L38.6022 38.4688L36.7342 36.4452L43.3991 30.2929Z" fill="#D76238"/>
<path d="M59.087 19.9892L66.9392 35.1375L63.8283 36.75L55.9762 21.6017L59.087 19.9892ZM63.748 17.5731L65.0154 20.0181L52.6553 26.4249L51.388 23.98L63.748 17.5731Z" fill="#D76238"/>
<path d="M98.0135 17.2168L98.1193 19.957L89.2197 20.3006L89.1139 17.5605L98.0135 17.2168ZM89.888 10.5762L90.5463 27.626L87.0333 27.7616L86.375 10.7118L89.888 10.5762ZM100.251 10.176L100.91 27.2258L97.4084 27.361L96.75 10.3112L100.251 10.176Z" fill="#D76238"/>
<path d="M120.448 15.9815L112.082 28.2944L108.489 27.2621L119.294 12.6139L121.58 13.2709L120.448 15.9815ZM120.247 30.6407L119.682 15.7615L120.127 12.8534L122.436 13.5168L123.851 31.6763L120.247 30.6407ZM121.799 24.4779L121.038 27.1247L112.377 24.636L113.137 21.9892L121.799 24.4779Z" fill="#D76238"/>
<path d="M149.02 26.1484L147.507 28.4499L141.093 24.2349L133.235 36.193L130.307 34.2689L139.677 20.0092L149.02 26.1484ZM138.179 26.471L141.509 28.659C142.632 29.3969 143.476 30.2179 144.041 31.122C144.606 32.0262 144.886 32.9582 144.882 33.9182C144.878 34.8781 144.581 35.8053 143.994 36.6998C143.548 37.3788 143.016 37.9176 142.399 38.3161C141.786 38.708 141.106 38.9531 140.359 39.0513C139.623 39.1472 138.849 39.0873 138.037 38.8717C137.226 38.6561 136.399 38.2716 135.556 37.7182L130.307 34.2689L139.677 20.0092L142.624 21.9462L134.761 33.9142L137.062 35.4265C137.624 35.7954 138.156 35.9955 138.659 36.0269C139.162 36.0582 139.618 35.9609 140.028 35.7349C140.449 35.5068 140.799 35.1805 141.078 34.7561C141.344 34.3513 141.49 33.9235 141.515 33.4726C141.551 33.0195 141.448 32.5781 141.207 32.1485C140.966 31.7189 140.565 31.3197 140.003 30.9507L136.673 28.7627L138.179 26.471Z" fill="#D76238"/>
<path d="M162.961 51.1914L162.335 51.7021C161.329 52.5212 160.316 53.1201 159.294 53.4988C158.272 53.8776 157.278 54.0481 156.31 54.0103C155.348 53.9675 154.437 53.7218 153.578 53.2731C152.724 52.8304 151.956 52.1911 151.275 51.3552C150.599 50.5254 150.128 49.6443 149.863 48.7121C149.602 47.7858 149.545 46.8444 149.693 45.8877C149.847 44.926 150.21 43.9803 150.782 43.0503C151.36 42.1264 152.151 41.2549 153.157 40.4359L153.784 39.9252C154.795 39.1012 155.809 38.5022 156.824 38.1284C157.846 37.7497 158.841 37.5792 159.809 37.617C160.781 37.6609 161.695 37.9041 162.549 38.3468C163.409 38.7955 164.176 39.4348 164.852 40.2646C165.533 41.1005 166.004 41.9816 166.265 42.9078C166.531 43.8401 166.584 44.784 166.425 45.7396C166.272 46.7012 165.906 47.644 165.329 48.5679C164.762 49.4929 163.973 50.3674 162.961 51.1914ZM160.092 48.9491L160.737 48.4236C161.44 47.8513 162.006 47.2844 162.435 46.723C162.864 46.1616 163.16 45.6086 163.321 45.0643C163.482 44.5199 163.508 43.995 163.398 43.4896C163.295 42.9792 163.056 42.4939 162.681 42.0336C162.306 41.5732 161.879 41.2408 161.4 41.0364C160.932 40.8332 160.415 40.7554 159.85 40.8031C159.289 40.8568 158.69 41.0372 158.053 41.3443C157.417 41.6513 156.747 42.091 156.045 42.6633L155.4 43.1888C154.703 43.7563 154.137 44.3231 153.701 44.8895C153.272 45.4509 152.974 46.0063 152.807 46.5556C152.645 47.1 152.617 47.6274 152.72 48.1377C152.823 48.648 153.062 49.1334 153.437 49.5937C153.812 50.054 154.239 50.3864 154.718 50.5908C155.197 50.7952 155.717 50.8705 156.278 50.8168C156.845 50.7581 157.446 50.5752 158.083 50.2682C158.726 49.9563 159.395 49.5166 160.092 48.9491Z" fill="#D76238"/>
<path d="M168.957 68.0934L167.399 64.0345L169.959 63.0519L171.517 67.1109C171.758 67.7381 172.056 68.2095 172.411 68.525C172.774 68.8376 173.176 69.0138 173.618 69.0533C174.06 69.0929 174.514 69.0231 174.981 68.844C175.455 68.662 175.862 68.4015 176.2 68.0624C176.539 67.7233 176.756 67.3092 176.853 66.8201C176.95 66.3311 176.878 65.7729 176.637 65.1457L175.516 62.2245L162.158 67.3516L160.898 64.0694L176.827 57.9556L179.208 64.1589C179.687 65.4061 179.871 66.5614 179.76 67.6248C179.66 68.6927 179.306 69.6149 178.701 70.3913C178.095 71.1677 177.285 71.7505 176.271 72.1396C175.243 72.5343 174.262 72.6388 173.329 72.4531C172.396 72.2673 171.553 71.8042 170.8 71.0639C170.05 70.3308 169.436 69.3407 168.957 68.0934Z" fill="#D76238"/>
</svg>
