<svg width="104" height="104" viewBox="0 0 104 104" fill="none" xmlns="http://www.w3.org/2000/svg">
<mask id="path-1-inside-1_21_146" fill="white">
<path fill-rule="evenodd" clip-rule="evenodd" d="M82.9091 0.939014C79.6867 1.58585 77.0308 3.73263 75.9492 6.56446C74.4919 10.3805 75.262 14.2667 78.0226 17.0274C79.2604 18.2651 82.4467 19.563 82.4467 19.563L82.5573 20.0373C82.5573 20.0373 78.5044 20.8535 76.6111 21.7502C72.588 23.6559 69.579 26.6007 67.5768 30.5919C66.8508 32.039 66.0153 34.6342 65.8291 36.0207C65.6993 36.9884 65.7172 37.0397 66.3111 37.3904C67.3904 38.0278 70.2088 40.4601 71.1626 41.5774C74.5416 45.5354 76.4447 49.4964 77.2727 54.2939C77.7035 56.7903 77.7162 72.5467 77.2889 74.5624C76.6871 77.4016 75.4441 79.7418 73.3004 82.0708L71.9351 83.5537L71.9934 92.4605C72.0487 100.949 72.0704 101.4 72.4537 102.05C72.6749 102.426 73.1112 102.923 73.4234 103.156C73.984 103.574 74.1274 103.579 84.7188 103.579C95.24 103.579 95.4569 103.571 96.0016 103.164C96.307 102.936 96.7433 102.5 96.9713 102.195C97.3805 101.647 97.3867 101.436 97.4426 86.1219L97.4995 70.6042L98.6418 70.1079C100.021 69.5092 101.981 67.6332 102.761 66.1656C103.914 63.9995 103.921 63.904 103.921 50.18C103.921 40.0036 103.864 37.2575 103.625 35.8963C103.3 34.0394 102.615 31.8761 101.911 30.4876C100.418 27.5391 97.3874 24.3007 94.5077 22.5754C92.5358 21.3939 86.9807 20.0373 86.9807 20.0373L86.3637 19.48C86.3637 19.48 90.2213 18.2852 91.4454 17.0611C96.7807 11.7258 94.1771 2.57429 86.8842 1.02889C85.4038 0.715227 84.1638 0.687279 82.9091 0.939014ZM50.9396 20.2404C48.5631 20.6657 46.9257 21.5327 45.4514 23.1456C43.7422 25.0157 43.0093 26.9753 43.0047 29.6871C42.997 34.3388 45.7774 37.8518 50.3269 38.939L51.7247 39.273L50.3026 39.4053C42.9238 40.0909 36.1575 45.7827 34.0793 53.0517C33.8171 53.9693 33.5457 55.0923 33.4763 55.5473C33.3515 56.3666 33.3603 56.3813 34.4038 57.0768C39.7013 60.6069 43.5674 66.5366 44.9017 73.1778C45.3252 75.2852 45.5146 80.4299 45.2476 82.5676C44.7929 86.2075 43.5021 89.0223 41.1376 91.53L39.7804 92.9692V97.1715C39.7804 102.048 39.8887 102.454 41.3961 103.227C42.2768 103.679 42.2971 103.68 52.4476 103.68C62.598 103.68 62.6183 103.679 63.499 103.227C65.1725 102.369 65.1148 102.81 65.1148 90.8795V80.3855L66.2317 79.8739C67.5846 79.2547 69.6866 77.2884 70.3946 75.9803C71.5551 73.8359 71.5821 73.5383 71.4996 63.822C71.4272 55.2928 71.4053 54.8584 70.973 53.4264C69.3335 47.9962 65.7853 43.6936 60.9503 41.2732C59.1883 40.3913 56.5298 39.5983 54.7047 39.4103L52.085 39.273L54.5318 39.0025C60.8966 37.553 63.993 30.1411 60.5475 24.6027C58.5348 21.3678 54.6064 19.5841 50.9396 20.2404ZM18.3668 39.6761C14.4146 40.5616 11.6135 43.2672 10.8479 46.9384C9.75629 52.173 12.8529 57.1373 17.9646 58.348L18.97 58.586L17.9646 58.7336C12.1942 59.5807 7.31756 62.5641 4.20605 67.1513C3.20836 68.6221 2.06288 71.21 1.56504 73.1175C1.00849 75.2506 0.779676 80.8385 1.16814 82.8129C1.69795 85.5058 3.73294 88.2389 6.0814 89.4119L7.30811 90.0248L7.40864 95.8326C7.50334 101.3 7.5335 101.673 7.92377 102.195C8.15178 102.5 8.5881 102.936 8.89352 103.164C9.438 103.571 9.65556 103.579 20.1408 103.579H30.8329L31.4894 103.111C32.7987 102.177 32.8367 101.978 32.9079 95.6864L32.972 90.0057L34.0524 89.4946C36.1585 88.4983 37.9052 86.5041 38.8132 84.0593C39.2085 82.9949 39.256 82.4763 39.2618 79.1495C39.2692 75.0546 39.0205 73.4587 37.9565 70.7731C35.9382 65.6788 31.5632 61.4685 26.4907 59.7385C25.3377 59.3454 22.674 58.7515 21.5072 58.6274C21.4389 58.6202 21.8702 58.4831 22.4661 58.3228C27.1862 57.0535 30.2613 52.4949 29.5746 47.7847C28.9909 43.7789 26.404 40.8431 22.5807 39.8472C21.4771 39.5597 19.2836 39.4706 18.3668 39.6761Z"/>
</mask>
<path d="M82.9091 0.939014L82.1223 -2.98282L82.122 -2.98276L82.9091 0.939014ZM75.9492 6.56446L72.2125 5.13731L72.2124 5.1374L75.9492 6.56446ZM78.0226 17.0274L80.8511 14.1989L78.0226 17.0274ZM82.4467 19.563L86.3422 18.6548L85.8723 16.6393L83.9556 15.8585L82.4467 19.563ZM82.5573 20.0373L83.3469 23.9586L87.389 23.1447L86.4528 19.1291L82.5573 20.0373ZM76.6111 21.7502L74.8989 18.1352L74.8988 18.1353L76.6111 21.7502ZM67.5768 30.5919L71.152 32.3857L71.1521 32.3855L67.5768 30.5919ZM65.8291 36.0207L61.8647 35.4884L61.8647 35.4886L65.8291 36.0207ZM66.3111 37.3904L68.3451 33.9461L68.3447 33.9459L66.3111 37.3904ZM71.1626 41.5774L74.2048 38.9803L74.2048 38.9803L71.1626 41.5774ZM77.2727 54.2939L73.3309 54.9742L73.3309 54.9742L77.2727 54.2939ZM77.2889 74.5624L73.3759 73.7329L73.3759 73.733L77.2889 74.5624ZM73.3004 82.0708L76.2431 84.7801L76.2434 84.7798L73.3004 82.0708ZM71.9351 83.5537L68.9924 80.8444L67.9249 82.0038L67.9352 83.5798L71.9351 83.5537ZM71.9934 92.4605L75.9934 92.4345V92.4343L71.9934 92.4605ZM72.4537 102.05L75.9005 100.02L75.9 100.019L72.4537 102.05ZM73.4234 103.156L75.8139 99.9487L75.8132 99.9482L73.4234 103.156ZM96.0016 103.164L98.3942 106.37L98.3945 106.37L96.0016 103.164ZM96.9713 102.195L93.7664 99.8013L93.766 99.8018L96.9713 102.195ZM97.4426 86.1219L93.4427 86.1072L93.4427 86.1073L97.4426 86.1219ZM97.4995 70.6042L95.9057 66.9354L93.5091 67.9765L93.4996 70.5895L97.4995 70.6042ZM98.6418 70.1079L97.0484 66.439L97.048 66.4392L98.6418 70.1079ZM102.761 66.1656L106.293 68.0443L106.293 68.0442L102.761 66.1656ZM103.625 35.8963L99.6854 36.5861L99.6854 36.5865L103.625 35.8963ZM101.911 30.4876L98.3428 32.2951L98.343 32.2954L101.911 30.4876ZM94.5077 22.5754L92.4518 26.0066L92.4518 26.0066L94.5077 22.5754ZM86.9807 20.0373L84.2996 23.0057L85.0498 23.6833L86.0318 23.9231L86.9807 20.0373ZM86.3637 19.48L85.1803 15.659L78.4675 17.738L83.6825 22.4484L86.3637 19.48ZM91.4454 17.0611L88.617 14.2327L91.4454 17.0611ZM86.8842 1.02889L87.7134 -2.88422L87.7133 -2.88424L86.8842 1.02889ZM50.9396 20.2404L51.6442 24.1779L51.6443 24.1778L50.9396 20.2404ZM45.4514 23.1456L48.404 25.8442L48.404 25.8442L45.4514 23.1456ZM43.0047 29.6871L39.0047 29.6803L39.0047 29.6805L43.0047 29.6871ZM50.3269 38.939L49.3972 42.8295L49.3974 42.8295L50.3269 38.939ZM51.7247 39.273L52.0952 43.2558L52.6542 35.3825L51.7247 39.273ZM50.3026 39.4053L50.6727 43.3881L50.6731 43.3881L50.3026 39.4053ZM34.0793 53.0517L30.2334 51.9521L30.2332 51.9528L34.0793 53.0517ZM33.4763 55.5473L29.522 54.9445L29.522 54.9447L33.4763 55.5473ZM34.4038 57.0768L32.1855 60.4053L32.1857 60.4055L34.4038 57.0768ZM44.9017 73.1778L40.9801 73.9657L40.9801 73.9658L44.9017 73.1778ZM45.2476 82.5676L41.2784 82.0719L41.2784 82.0719L45.2476 82.5676ZM41.1376 91.53L44.0477 94.2743L44.0478 94.2741L41.1376 91.53ZM39.7804 92.9692L36.8702 90.2249L35.7804 91.3807V92.9692H39.7804ZM41.3961 103.227L43.2213 99.6679L43.2212 99.6678L41.3961 103.227ZM63.499 103.227L65.3241 106.787L65.3242 106.787L63.499 103.227ZM65.1148 80.3855L63.4492 76.7487L61.1148 77.8178V80.3855H65.1148ZM66.2317 79.8739L64.5669 76.2368L64.5662 76.2372L66.2317 79.8739ZM70.3946 75.9803L66.8767 74.0764L66.8767 74.0764L70.3946 75.9803ZM71.4996 63.822L75.4995 63.7881V63.7881L71.4996 63.822ZM70.973 53.4264L74.8023 52.2704L74.8023 52.2703L70.973 53.4264ZM60.9503 41.2732L62.7408 37.6963L62.7406 37.6962L60.9503 41.2732ZM54.7047 39.4103L55.1146 35.4313L55.0146 35.421L54.9141 35.4158L54.7047 39.4103ZM52.085 39.273L51.6456 35.2972L51.8756 43.2675L52.085 39.273ZM54.5318 39.0025L54.9712 42.9783L55.1978 42.9533L55.42 42.9027L54.5318 39.0025ZM60.5475 24.6027L63.9439 22.4898L63.9438 22.4897L60.5475 24.6027ZM18.3668 39.6761L19.2413 43.5793L19.2416 43.5793L18.3668 39.6761ZM10.8479 46.9384L6.93213 46.1218L6.93212 46.1219L10.8479 46.9384ZM17.9646 58.348L17.0428 62.2403L17.0429 62.2403L17.9646 58.348ZM18.97 58.586L19.5509 62.5436L19.8917 54.6937L18.97 58.586ZM17.9646 58.7336L18.5456 62.6912H18.5456L17.9646 58.7336ZM4.20605 67.1513L7.51632 69.3967L7.51635 69.3967L4.20605 67.1513ZM1.56504 73.1175L-2.30531 72.1074L-2.30539 72.1077L1.56504 73.1175ZM1.16814 82.8129L-2.75663 83.5851L-2.75662 83.5851L1.16814 82.8129ZM6.0814 89.4119L7.86907 85.8336L7.86878 85.8335L6.0814 89.4119ZM7.30811 90.0248L11.3075 89.9556L11.2655 87.5305L9.09578 86.4465L7.30811 90.0248ZM7.40864 95.8326L3.40924 95.9018L3.40924 95.9019L7.40864 95.8326ZM7.92377 102.195L11.1283 99.8012L11.1278 99.8005L7.92377 102.195ZM8.89352 103.164L11.2867 99.9594L11.2864 99.9592L8.89352 103.164ZM30.8329 103.579V107.579H32.1134L33.1558 106.835L30.8329 103.579ZM31.4894 103.111L29.1669 99.8541L29.1665 99.8544L31.4894 103.111ZM32.9079 95.6864L36.9076 95.7317L36.9077 95.7316L32.9079 95.6864ZM32.972 90.0057L31.2614 86.3899L29.0005 87.4596L28.9723 89.9605L32.972 90.0057ZM34.0524 89.4946L32.342 85.8787L32.3417 85.8788L34.0524 89.4946ZM38.8132 84.0593L42.563 85.452L42.563 85.4519L38.8132 84.0593ZM39.2618 79.1495L35.2618 79.1422V79.1425L39.2618 79.1495ZM37.9565 70.7731L34.2377 72.2464V72.2464L37.9565 70.7731ZM26.4907 59.7385L27.7818 55.9527L27.7815 55.9525L26.4907 59.7385ZM21.5072 58.6274L21.9301 54.6499L21.9284 54.6497L21.5072 58.6274ZM22.4661 58.3228L23.5048 62.1856L23.5049 62.1856L22.4661 58.3228ZM29.5746 47.7847L25.6164 48.3615L25.6165 48.3617L29.5746 47.7847ZM22.5807 39.8472L21.5723 43.718L21.5725 43.7181L22.5807 39.8472ZM82.122 -2.98276C77.6889 -2.09294 73.8313 0.898726 72.2125 5.13731L79.686 7.9916C80.2302 6.56654 81.6844 5.26464 83.6963 4.86079L82.122 -2.98276ZM72.2124 5.1374C70.226 10.3389 71.253 15.9146 75.1942 19.8558L80.8511 14.1989C79.2709 12.6188 78.7578 10.4221 79.686 7.99152L72.2124 5.1374ZM75.1942 19.8558C76.3167 20.9783 77.9581 21.8576 78.8993 22.3317C79.4482 22.6082 79.9471 22.8375 80.3082 22.9976C80.49 23.0782 80.6401 23.1427 80.748 23.1884C80.802 23.2112 80.8457 23.2295 80.8777 23.2427C80.8937 23.2494 80.9068 23.2548 80.9169 23.2589C80.9219 23.261 80.9262 23.2627 80.9296 23.2642C80.9314 23.2649 80.9329 23.2655 80.9343 23.2661C80.935 23.2663 80.9356 23.2666 80.9362 23.2668C80.9365 23.267 80.9369 23.2671 80.937 23.2672C80.9374 23.2673 80.9377 23.2675 82.4467 19.563C83.9556 15.8585 83.956 15.8587 83.9563 15.8588C83.9564 15.8589 83.9567 15.859 83.9569 15.8591C83.9573 15.8592 83.9576 15.8594 83.9579 15.8595C83.9585 15.8597 83.9589 15.8599 83.9591 15.86C83.9595 15.8601 83.9592 15.86 83.9582 15.8596C83.9561 15.8587 83.9512 15.8567 83.9435 15.8535C83.9283 15.8472 83.9023 15.8363 83.8667 15.8213C83.7955 15.7912 83.687 15.7446 83.5508 15.6842C83.2758 15.5622 82.9007 15.3897 82.4983 15.187C82.09 14.9813 81.6918 14.7638 81.3574 14.5546C80.9895 14.3244 80.8495 14.1974 80.8511 14.1989L75.1942 19.8558ZM78.5512 20.4713L78.6618 20.9456L86.4528 19.1291L86.3422 18.6548L78.5512 20.4713ZM82.5573 20.0373C81.7677 16.116 81.7674 16.1161 81.7671 16.1161C81.767 16.1162 81.7668 16.1162 81.7665 16.1163C81.7661 16.1164 81.7656 16.1165 81.765 16.1166C81.7639 16.1168 81.7625 16.1171 81.7609 16.1174C81.7577 16.1181 81.7535 16.1189 81.7483 16.12C81.738 16.1221 81.7238 16.125 81.706 16.1286C81.6703 16.1359 81.6201 16.1463 81.5568 16.1597C81.4302 16.1863 81.2509 16.2246 81.0311 16.2731C80.5932 16.3699 79.9869 16.5092 79.3134 16.6796C78.0708 16.9939 76.2375 17.5011 74.8989 18.1352L78.3234 25.3652C78.878 25.1025 80.0178 24.7534 81.275 24.4354C81.8514 24.2896 82.3765 24.1688 82.7577 24.0846C82.9475 24.0426 83.0996 24.0102 83.2021 23.9886C83.2533 23.9779 83.292 23.9699 83.3166 23.9648C83.329 23.9623 83.3378 23.9605 83.3429 23.9594C83.3454 23.9589 83.3471 23.9586 83.3477 23.9584C83.3481 23.9584 83.3482 23.9584 83.3481 23.9584C83.348 23.9584 83.3479 23.9584 83.3477 23.9585C83.3476 23.9585 83.3474 23.9585 83.3473 23.9585C83.3471 23.9586 83.3469 23.9586 82.5573 20.0373ZM74.8988 18.1353C70.0661 20.4244 66.4027 24.0118 64.0015 28.7983L71.1521 32.3855C72.7554 29.1897 75.1099 26.8874 78.3235 25.3652L74.8988 18.1353ZM64.0016 28.7981C63.1075 30.5802 62.1183 33.5997 61.8647 35.4884L69.7936 36.5531C69.9123 35.6686 70.5941 33.4978 71.152 32.3857L64.0016 28.7981ZM61.8647 35.4886C61.8368 35.6963 61.7882 36.0509 61.7711 36.3942C61.7543 36.7312 61.7389 37.45 62.0253 38.2643C62.3558 39.2036 62.926 39.8376 63.4078 40.2387C63.7806 40.549 64.1775 40.7758 64.2775 40.8349L68.3447 33.9459C68.1478 33.8296 68.3197 33.9185 68.5261 34.0903C68.8416 34.3529 69.3041 34.8479 69.572 35.6096C69.796 36.2463 69.7634 36.7488 69.7612 36.7931C69.7586 36.8437 69.7565 36.829 69.7936 36.5528L61.8647 35.4886ZM64.2771 40.8346C64.2718 40.8315 64.2865 40.84 64.3241 40.8649C64.3603 40.889 64.4091 40.9223 64.4709 40.9664C64.5958 41.0552 64.7516 41.1715 64.9347 41.3139C65.3015 41.5991 65.7315 41.9533 66.1705 42.3321C67.107 43.1403 67.8535 43.8619 68.1204 44.1745L74.2048 38.9803C73.5179 38.1756 72.3783 37.1223 71.3973 36.2757C70.4465 35.4551 69.2286 34.4679 68.3451 33.9461L64.2771 40.8346ZM68.1204 44.1745C71.0661 47.625 72.6336 50.9338 73.3309 54.9742L81.2144 53.6136C80.2557 48.059 78.017 43.4457 74.2048 38.9803L68.1204 44.1745ZM73.3309 54.9742C73.3303 54.9704 73.3344 54.994 73.3416 55.053C73.3485 55.1097 73.3568 55.1857 73.3659 55.2831C73.3843 55.4793 73.4032 55.7315 73.4219 56.0403C73.4593 56.6581 73.4919 57.4418 73.5188 58.349C73.5725 60.1604 73.6008 62.387 73.6026 64.6116C73.6044 66.8367 73.5796 69.0316 73.5289 70.7802C73.5035 71.6568 73.4722 72.3975 73.4365 72.963C73.3951 73.6188 73.3602 73.8068 73.3759 73.7329L81.202 75.3918C81.4014 74.4512 81.4778 72.6602 81.5256 71.012C81.5792 69.1613 81.6044 66.8831 81.6026 64.6052C81.6008 62.3266 81.5718 60.0201 81.5153 58.1121C81.4627 56.3369 81.3802 54.5742 81.2144 53.6135L73.3309 54.9742ZM73.3759 73.733C72.9362 75.8073 72.0603 77.5117 70.3574 79.3618L76.2434 84.7798C78.828 81.972 80.4381 78.996 81.202 75.3918L73.3759 73.733ZM70.3577 79.3615L68.9924 80.8444L74.8779 86.263L76.2431 84.7801L70.3577 79.3615ZM67.9352 83.5798L67.9935 92.4867L75.9934 92.4343L75.9351 83.5275L67.9352 83.5798ZM67.9935 92.4866C68.0209 96.681 68.0399 99.0256 68.1052 100.386C68.1372 101.052 68.1878 101.705 68.3158 102.305C68.4815 103.082 68.7447 103.635 69.0074 104.08L75.9 100.019C75.8988 100.017 75.9159 100.046 75.9401 100.093C75.9659 100.143 75.9964 100.207 76.0271 100.282C76.0922 100.44 76.1255 100.569 76.1399 100.637C76.1543 100.704 76.1243 100.592 76.096 100.003C76.0408 98.8531 76.0213 96.7283 75.9934 92.4345L67.9935 92.4866ZM69.0069 104.08C69.4659 104.859 70.2456 105.776 71.0337 106.364L75.8132 99.9482C75.8667 99.988 75.9027 100.018 75.9205 100.034C75.9394 100.05 75.949 100.06 75.9498 100.06C75.9499 100.06 75.9353 100.046 75.9119 100.019C75.889 99.9932 75.871 99.9704 75.8612 99.9573C75.8569 99.9516 75.8577 99.9523 75.8629 99.9601C75.8677 99.9672 75.8811 99.9874 75.9005 100.02L69.0069 104.08ZM71.033 106.363C71.4232 106.654 72.0458 107.068 73.0391 107.297C73.7025 107.449 74.4425 107.494 75.1597 107.521C76.6863 107.579 79.4764 107.579 84.7188 107.579V99.5791C79.3697 99.5791 76.7924 99.5769 75.4593 99.527C74.7467 99.5002 74.6838 99.466 74.8317 99.5C74.9674 99.5312 75.1959 99.599 75.4607 99.7348C75.7022 99.8586 75.8668 99.9881 75.8139 99.9487L71.033 106.363ZM84.7188 107.579C89.9284 107.579 92.7161 107.578 94.2483 107.522C94.9702 107.495 95.7022 107.45 96.354 107.306C97.3267 107.09 97.9555 106.697 98.3942 106.37L93.609 99.959C93.5836 99.9779 93.7547 99.8449 94.0095 99.7181C94.2765 99.5852 94.501 99.5226 94.6228 99.4956C94.752 99.4669 94.67 99.5006 93.9545 99.5269C92.6117 99.5763 90.0303 99.5791 84.7188 99.5791V107.579ZM98.3945 106.37C99.0084 105.911 99.7184 105.202 100.177 104.588L93.766 99.8018C93.7748 99.7901 93.7814 99.7816 93.7854 99.7765C93.7895 99.7714 93.7918 99.7686 93.7921 99.7682C93.7924 99.7678 93.7877 99.7735 93.7775 99.7849C93.7562 99.8089 93.7248 99.8424 93.687 99.8802C93.6493 99.918 93.6157 99.9494 93.5917 99.9707C93.5803 99.9809 93.5746 99.9856 93.575 99.9853C93.5754 99.9849 93.5782 99.9826 93.5834 99.9786C93.5885 99.9745 93.5969 99.9679 93.6087 99.9592L98.3945 106.37ZM100.176 104.588C100.269 104.464 100.532 104.114 100.758 103.609C100.973 103.128 101.084 102.673 101.149 102.297C101.265 101.639 101.308 100.811 101.338 99.813C101.399 97.7112 101.415 93.7568 101.443 86.1365L93.4427 86.1073C93.4146 93.8014 93.3989 97.6095 93.3412 99.5785C93.327 100.062 93.3112 100.396 93.2951 100.63C93.2782 100.875 93.2651 100.942 93.27 100.914C93.2769 100.875 93.3192 100.646 93.4559 100.341C93.6028 100.012 93.7758 99.7887 93.7664 99.8013L100.176 104.588ZM101.443 86.1366L101.5 70.6188L93.4996 70.5895L93.4427 86.1072L101.443 86.1366ZM99.0933 74.2729L100.236 73.7767L97.048 66.4392L95.9057 66.9354L99.0933 74.2729ZM100.235 73.7769C101.54 73.2102 102.77 72.2339 103.691 71.3525C104.634 70.4509 105.635 69.2812 106.293 68.0443L99.2301 64.287C99.1073 64.5177 98.7382 65.0197 98.1603 65.5727C97.8942 65.8273 97.6336 66.0446 97.4075 66.2087C97.166 66.384 97.0424 66.4416 97.0484 66.439L100.235 73.7769ZM106.293 68.0442C106.568 67.5262 106.962 66.8018 107.251 65.8618C107.54 64.9256 107.679 63.9459 107.763 62.7963C107.922 60.6001 107.921 56.9432 107.921 50.18H99.9206C99.9206 57.1409 99.9159 60.3937 99.7836 62.2178C99.7212 63.0783 99.643 63.3863 99.606 63.5062C99.5703 63.6222 99.5306 63.722 99.2301 64.287L106.293 68.0442ZM107.921 50.18C107.921 45.0977 107.907 41.8264 107.862 39.6498C107.818 37.5335 107.744 36.2244 107.565 35.206L99.6854 36.5865C99.7455 36.9294 99.8191 37.6739 99.8633 39.8151C99.9063 41.896 99.9206 45.0859 99.9206 50.18H107.921ZM107.565 35.2064C107.186 33.0397 106.394 30.4856 105.479 28.6797L98.343 32.2954C98.8351 33.2666 99.4145 35.0391 99.6854 36.5861L107.565 35.2064ZM105.479 28.68C103.639 25.0474 100.08 21.2508 96.5635 19.1441L92.4518 26.0066C94.6951 27.3507 97.1959 30.0309 98.3428 32.2951L105.479 28.68ZM96.5635 19.1442C95.0746 18.252 92.7011 17.4925 91.1461 17.0296C90.2779 16.7711 89.4801 16.5533 88.9007 16.4003C88.61 16.3235 88.3718 16.2625 88.2043 16.2201C88.1205 16.1989 88.0542 16.1823 88.0078 16.1708C87.9845 16.165 87.9662 16.1605 87.9531 16.1573C87.9465 16.1556 87.9413 16.1544 87.9374 16.1534C87.9354 16.1529 87.9338 16.1525 87.9325 16.1522C87.9319 16.1521 87.9313 16.1519 87.9308 16.1518C87.9306 16.1517 87.9303 16.1517 87.9302 16.1516C87.9299 16.1516 87.9297 16.1515 86.9807 20.0373C86.0318 23.9231 86.0316 23.9231 86.0314 23.923C86.0314 23.923 86.0312 23.923 86.0311 23.923C86.031 23.9229 86.031 23.9229 86.031 23.9229C86.0311 23.923 86.0315 23.923 86.0322 23.9232C86.0336 23.9236 86.0364 23.9243 86.0404 23.9252C86.0484 23.9272 86.0615 23.9305 86.0795 23.9349C86.1153 23.9438 86.1703 23.9576 86.2423 23.9758C86.3863 24.0122 86.5975 24.0663 86.8584 24.1352C87.3822 24.2735 88.0964 24.4687 88.8634 24.697C90.5789 25.2077 91.9689 25.7173 92.4518 26.0066L96.5635 19.1442ZM89.6619 17.0689L89.0448 16.5116L83.6825 22.4484L84.2996 23.0057L89.6619 17.0689ZM86.3637 19.48C87.547 23.3009 87.5474 23.3008 87.5478 23.3007C87.548 23.3006 87.5484 23.3005 87.5487 23.3004C87.5493 23.3002 87.55 23.3 87.5507 23.2998C87.5522 23.2993 87.5539 23.2988 87.5559 23.2982C87.5598 23.297 87.5646 23.2954 87.5704 23.2936C87.5819 23.29 87.5971 23.2853 87.6158 23.2793C87.6531 23.2675 87.7045 23.2511 87.7682 23.2304C87.8954 23.189 88.0731 23.1302 88.288 23.0562C88.7145 22.9093 89.3036 22.6972 89.9446 22.4381C90.5764 22.1827 91.3128 21.8599 92.0145 21.4864C92.6515 21.1473 93.5425 20.6209 94.2739 19.8896L88.617 14.2327C88.7363 14.1134 88.686 14.1954 88.2554 14.4246C87.8895 14.6194 87.432 14.8248 86.9464 15.0211C86.47 15.2137 86.0182 15.3768 85.6831 15.4921C85.5172 15.5493 85.3839 15.5934 85.2955 15.6221C85.2513 15.6365 85.2186 15.6469 85.1988 15.6532C85.1889 15.6563 85.1823 15.6584 85.1792 15.6594C85.1776 15.6599 85.1769 15.6601 85.1771 15.66C85.1772 15.66 85.1775 15.6599 85.178 15.6597C85.1783 15.6597 85.1786 15.6595 85.179 15.6594C85.1792 15.6594 85.1795 15.6593 85.1796 15.6592C85.1799 15.6591 85.1803 15.659 86.3637 19.48ZM94.2739 19.8896C101.765 12.398 98.2327 -0.65513 87.7134 -2.88422L86.055 4.942C90.1215 5.80371 91.796 11.0537 88.617 14.2327L94.2739 19.8896ZM87.7133 -2.88424C85.7959 -3.29049 83.9986 -3.35929 82.1223 -2.98282L83.696 4.86085C84.329 4.73385 85.0117 4.72095 86.0552 4.94203L87.7133 -2.88424ZM50.235 16.3029C47.089 16.8659 44.6283 18.1172 42.4989 20.447L48.404 25.8442C49.2231 24.9481 50.0373 24.4654 51.6442 24.1779L50.235 16.3029ZM42.4989 20.447C40.0674 23.1073 39.0109 26.0487 39.0047 29.6803L47.0047 29.6939C47.0077 27.9019 47.4169 26.9242 48.404 25.8442L42.4989 20.447ZM39.0047 29.6805C38.994 36.2006 43.0596 41.315 49.3972 42.8295L51.2566 35.0485C48.4952 34.3887 47.0001 32.4769 47.0047 29.6937L39.0047 29.6805ZM49.3974 42.8295L50.7952 43.1635L52.6542 35.3825L51.2564 35.0485L49.3974 42.8295ZM51.3542 35.2902L49.9321 35.4225L50.6731 43.3881L52.0952 43.2558L51.3542 35.2902ZM49.9325 35.4224C40.8676 36.2647 32.7528 43.1402 30.2334 51.9521L37.9252 54.1512C39.5623 48.4252 44.9801 43.9171 50.6727 43.3881L49.9325 35.4224ZM30.2332 51.9528C29.963 52.8986 29.6317 54.2248 29.522 54.9445L37.4306 56.1501C37.4303 56.1525 37.4412 56.0867 37.4743 55.9317C37.5046 55.7901 37.545 55.6135 37.5936 55.4125C37.6912 55.0089 37.8107 54.5521 37.9254 54.1505L30.2332 51.9528ZM29.522 54.9447C29.5054 55.0534 29.4235 55.5335 29.4218 56.0208C29.4197 56.6786 29.5475 57.5516 30.0816 58.4325C30.5303 59.1724 31.1003 59.6287 31.3628 59.8305C31.6397 60.0434 31.9651 60.2584 32.1855 60.4053L36.6222 53.7483C36.4879 53.6588 36.3966 53.5977 36.3232 53.5474C36.2487 53.4962 36.23 53.4815 36.2394 53.4887C36.2468 53.4944 36.3312 53.5589 36.4457 53.6732C36.5655 53.7929 36.7468 53.9952 36.9222 54.2845C37.1066 54.5885 37.2449 54.9234 37.3289 55.2729C37.409 55.606 37.4224 55.8803 37.4218 56.0475C37.4215 56.1309 37.4177 56.1955 37.4148 56.2344C37.4118 56.2732 37.409 56.2969 37.4087 56.2987C37.4085 56.3005 37.4096 56.2912 37.4136 56.2635C37.4177 56.2354 37.4228 56.2012 37.4307 56.1499L29.522 54.9447ZM32.1857 60.4055C36.5404 63.3073 39.8398 68.2898 40.9801 73.9657L48.8234 72.3899C47.2951 64.7834 42.8623 57.9066 36.622 53.7482L32.1857 60.4055ZM40.9801 73.9658C41.1252 74.6877 41.2709 76.2333 41.3363 78.0085C41.4016 79.7833 41.3701 81.3376 41.2784 82.0719L49.2167 83.0634C49.392 81.6599 49.3993 79.573 49.3309 77.7141C49.2624 75.8558 49.1017 73.7753 48.8233 72.3898L40.9801 73.9658ZM41.2784 82.0719C40.9219 84.9264 39.9706 86.937 38.2273 88.7858L44.0478 94.2741C47.0336 91.1075 48.664 87.4887 49.2167 83.0634L41.2784 82.0719ZM38.2274 88.7857L36.8702 90.2249L42.6905 95.7135L44.0477 94.2743L38.2274 88.7857ZM35.7804 92.9692V97.1715H43.7804V92.9692H35.7804ZM35.7804 97.1715C35.7804 98.3822 35.7865 99.409 35.825 100.249C35.862 101.057 35.9363 101.938 36.1582 102.769C36.4098 103.712 36.8651 104.652 37.6739 105.464C38.3753 106.168 39.1602 106.576 39.5711 106.787L43.2212 99.6678C42.8783 99.492 43.0844 99.5595 43.3416 99.8177C43.7061 100.184 43.8517 100.572 43.8878 100.707C43.8941 100.731 43.8471 100.548 43.8167 99.8831C43.7877 99.2515 43.7804 98.3989 43.7804 97.1715H35.7804ZM39.571 106.787C39.8403 106.925 40.3851 107.211 41.1942 107.392C41.8474 107.538 42.5495 107.589 43.2821 107.619C44.7719 107.68 47.4319 107.68 52.4476 107.68V99.6796C47.3128 99.6796 44.8874 99.6784 43.6093 99.6261C42.9579 99.5995 42.8553 99.5659 42.9399 99.5848C43.1803 99.6386 43.3923 99.7556 43.2213 99.6679L39.571 106.787ZM52.4476 107.68C57.4632 107.68 60.1232 107.68 61.613 107.619C62.3456 107.589 63.0477 107.538 63.7009 107.392C64.51 107.211 65.0548 106.925 65.3241 106.787L61.6738 99.6679C61.5028 99.7556 61.7148 99.6386 61.9552 99.5848C62.0398 99.5659 61.9372 99.5995 61.2858 99.6261C60.0077 99.6784 57.5824 99.6796 52.4476 99.6796V107.68ZM65.3242 106.787C65.334 106.781 66.6064 106.243 67.4825 105.231C68.4972 104.058 68.7742 102.69 68.9006 101.724C69.1396 99.898 69.1148 96.6248 69.1148 90.8795H61.1148C61.1148 97.0645 61.1188 99.5361 60.9682 100.686C60.8999 101.209 60.8775 100.638 61.4324 99.9965C61.8486 99.5154 62.5007 99.2439 61.6738 99.6679L65.3242 106.787ZM69.1148 90.8795V80.3855H61.1148V90.8795H69.1148ZM66.7803 84.0222L67.8972 83.5107L64.5662 76.2372L63.4492 76.7487L66.7803 84.0222ZM67.8965 83.511C69.1435 82.9402 70.3747 81.9604 71.2874 81.1067C72.2002 80.253 73.2598 79.09 73.9124 77.8841L66.8767 74.0764C66.8819 74.0668 66.8632 74.102 66.806 74.1826C66.7509 74.2603 66.6741 74.3603 66.5739 74.4794C66.3713 74.7205 66.1124 74.993 65.8226 75.2642C65.5327 75.5353 65.2435 75.7754 64.9894 75.9615C64.8638 76.0536 64.7589 76.1235 64.6777 76.1733C64.5934 76.225 64.557 76.2414 64.5669 76.2368L67.8965 83.511ZM73.9124 77.8842C74.1996 77.3535 74.569 76.6684 74.8536 75.8356C75.1506 74.9664 75.3069 74.0922 75.3968 73.1027C75.5612 71.2941 75.5397 68.5281 75.4995 63.7881L67.4998 63.8559C67.542 68.8322 67.5483 71.0732 67.4296 72.3786C67.3781 72.946 67.3152 73.1555 67.2833 73.2489C67.239 73.3786 67.1698 73.5349 66.8767 74.0764L73.9124 77.8842ZM75.4995 63.7881C75.43 55.6063 75.4458 54.4019 74.8023 52.2704L67.1437 54.5824C67.3648 55.3149 67.4244 54.9792 67.4998 63.8559L75.4995 63.7881ZM74.8023 52.2703C72.8625 45.8453 68.6123 40.6356 62.7408 37.6963L59.1597 44.85C62.9583 46.7516 65.8046 50.1471 67.1438 54.5826L74.8023 52.2703ZM62.7406 37.6962C60.5787 36.6142 57.4549 35.6724 55.1146 35.4313L54.2949 43.3892C55.6047 43.5242 57.7979 44.1684 59.1599 44.8501L62.7406 37.6962ZM54.9141 35.4158L52.2944 35.2785L51.8756 43.2675L54.4953 43.4048L54.9141 35.4158ZM52.5245 43.2488L54.9712 42.9783L54.0924 35.0267L51.6456 35.2972L52.5245 43.2488ZM55.42 42.9027C64.4598 40.844 68.8439 30.3662 63.9439 22.4898L57.1511 26.7157C59.1421 29.916 57.3334 34.2621 53.6436 35.1024L55.42 42.9027ZM63.9438 22.4897C61.0924 17.9067 55.5614 15.3496 50.2348 16.303L51.6443 24.1778C53.6514 23.8186 55.9772 24.8289 57.1512 26.7158L63.9438 22.4897ZM17.4922 35.7729C12.1648 36.9665 8.04966 40.7633 6.93213 46.1218L14.7636 47.7551C15.1774 45.771 16.6644 44.1567 19.2413 43.5793L17.4922 35.7729ZM6.93212 46.1219C5.41128 53.4148 9.76011 60.5155 17.0428 62.2403L18.8865 54.4556C15.9457 53.7592 14.1013 50.9312 14.7636 47.755L6.93212 46.1219ZM17.0429 62.2403L18.0483 62.4784L19.8917 54.6937L18.8863 54.4556L17.0429 62.2403ZM18.389 54.6284L17.3837 54.776L18.5456 62.6912L19.5509 62.5436L18.389 54.6284ZM17.3837 54.776C10.5692 55.7764 4.673 59.3372 0.895748 64.9058L7.51635 69.3967C9.96211 65.791 13.8193 63.385 18.5456 62.6912L17.3837 54.776ZM0.89578 64.9058C-0.38403 66.7925 -1.705 69.8072 -2.30531 72.1074L5.4354 74.1276C5.83077 72.6127 6.80075 70.4516 7.51632 69.3967L0.89578 64.9058ZM-2.30539 72.1077C-2.69904 73.6164 -2.90462 75.9113 -2.98444 77.8611C-3.06301 79.7802 -3.0507 82.0904 -2.75663 83.5851L5.0929 82.0408C4.99851 81.561 4.931 80.09 5.00886 78.1883C5.08546 76.3173 5.27257 74.7517 5.43547 74.1273L-2.30539 72.1077ZM-2.75662 83.5851C-2.00021 87.4297 0.779504 91.2349 4.29402 92.9904L7.86878 85.8335C6.68638 85.2429 5.39611 83.5819 5.0929 82.0408L-2.75662 83.5851ZM4.29373 92.9902L5.52044 93.6031L9.09578 86.4465L7.86907 85.8336L4.29373 92.9902ZM3.30871 90.094L3.40924 95.9018L11.408 95.7634L11.3075 89.9556L3.30871 90.094ZM3.40924 95.9019C3.45537 98.5651 3.48728 100.189 3.56841 101.191C3.6092 101.695 3.67922 102.305 3.86633 102.918C4.09989 103.683 4.44041 104.216 4.71978 104.59L11.1278 99.8005C11.212 99.9132 11.4024 100.204 11.5176 100.581C11.5863 100.806 11.5697 100.884 11.5423 100.545C11.4871 99.8638 11.4566 98.5673 11.408 95.7633L3.40924 95.9019ZM4.71922 104.589C5.17756 105.203 5.8873 105.912 6.50061 106.37L11.2864 99.9592C11.2981 99.9679 11.3065 99.9745 11.3116 99.9784C11.3167 99.9825 11.3195 99.9847 11.3198 99.985C11.3202 99.9853 11.3144 99.9806 11.3029 99.9704C11.2789 99.949 11.2453 99.9175 11.2074 99.8797C11.1696 99.8419 11.1382 99.8083 11.1168 99.7843C11.1066 99.7729 11.1019 99.7672 11.1023 99.7676C11.1026 99.768 11.1049 99.7708 11.1089 99.7759C11.113 99.781 11.1196 99.7895 11.1283 99.8012L4.71922 104.589ZM6.50034 106.37C6.93832 106.697 7.56681 107.09 8.53881 107.306C9.19068 107.45 9.92198 107.495 10.642 107.522C12.1701 107.578 14.9493 107.579 20.1408 107.579V99.5791C14.8471 99.5791 12.2749 99.5763 10.9367 99.527C10.2237 99.5007 10.1432 99.467 10.2734 99.4959C10.3957 99.5231 10.6202 99.5859 10.8868 99.7188C11.1411 99.8455 11.3119 99.9782 11.2867 99.9594L6.50034 106.37ZM20.1408 107.579H30.8329V99.5791H20.1408V107.579ZM33.1558 106.835L33.8123 106.367L29.1665 99.8544L28.51 100.323L33.1558 106.835ZM33.8119 106.367C34.1044 106.159 34.8337 105.657 35.4372 104.863C36.1147 103.972 36.4266 103.024 36.5919 102.159C36.8592 100.759 36.8745 98.658 36.9076 95.7317L28.9082 95.6412C28.8902 97.2282 28.8748 98.3651 28.8431 99.2214C28.8101 100.111 28.7645 100.498 28.734 100.657C28.7173 100.745 28.7697 100.415 29.0696 100.02C29.2955 99.7231 29.529 99.5958 29.1669 99.8541L33.8119 106.367ZM36.9077 95.7316L36.9718 90.0508L28.9723 89.9605L28.9082 95.6413L36.9077 95.7316ZM34.6827 93.6214L35.763 93.1103L32.3417 85.8788L31.2614 86.3899L34.6827 93.6214ZM35.7628 93.1104C38.9289 91.6128 41.3387 88.7483 42.563 85.452L35.0635 82.6666C34.4718 84.2599 33.3882 85.3838 32.342 85.8787L35.7628 93.1104ZM42.563 85.4519C43.2475 83.6087 43.2562 82.3666 43.2618 79.1565L35.2618 79.1425C35.2588 80.8573 35.2426 81.6246 35.2002 82.0888C35.183 82.2763 35.1664 82.3495 35.1599 82.3766C35.1521 82.4094 35.1345 82.4754 35.0635 82.6668L42.563 85.4519ZM43.2618 79.1568C43.2698 74.7502 42.9865 72.6093 41.6753 69.2997L34.2377 72.2464C35.0546 74.3081 35.2687 75.3589 35.2618 79.1422L43.2618 79.1568ZM41.6753 69.2997C39.2365 63.1444 33.9913 58.0704 27.7818 55.9527L25.1995 63.5244C29.135 64.8666 32.6398 68.2133 34.2377 72.2464L41.6753 69.2997ZM27.7815 55.9525C26.3581 55.4672 23.4037 54.8065 21.9301 54.6499L21.0843 62.605C21.9444 62.6965 24.3173 63.2236 25.1998 63.5245L27.7815 55.9525ZM21.9284 54.6497C22.0832 54.6661 22.5078 54.7169 23.0106 54.9217C23.4068 55.083 24.7829 55.7212 25.3177 57.43C25.8762 59.2149 25.0326 60.5682 24.7316 60.9805C24.385 61.4554 24.0161 61.7361 23.8865 61.8322C23.5868 62.0544 23.3248 62.1802 23.2699 62.207C23.1707 62.2552 23.0925 62.2878 23.0558 62.3028C22.9382 62.3508 22.875 62.3682 22.9489 62.3447C23.0448 62.3142 23.239 62.2571 23.5048 62.1856L21.4274 54.46C21.0972 54.5488 20.7779 54.6404 20.5262 54.7203C20.4264 54.7521 20.2309 54.8151 20.033 54.8958C19.9763 54.919 19.8813 54.959 19.7687 55.0138C19.7004 55.047 19.4284 55.1786 19.1222 55.4055C18.9895 55.5039 18.6182 55.7868 18.2702 56.2636C17.9678 56.6778 17.1238 58.0328 17.6827 59.8191C18.2179 61.5294 19.5954 62.1689 19.9939 62.3311C20.4991 62.5368 20.927 62.5884 21.0861 62.6052L21.9284 54.6497ZM23.5049 62.1856C30.1007 60.4118 34.5239 54.0064 33.5328 47.2077L25.6165 48.3617C25.9986 50.9834 24.2716 53.6952 21.4273 54.4601L23.5049 62.1856ZM33.5328 47.208C32.7248 41.6622 29.0178 37.3905 23.589 35.9764L21.5725 43.7181C23.7902 44.2957 25.2571 45.8955 25.6164 48.3615L33.5328 47.208ZM23.5891 35.9764C22.6387 35.7288 21.4909 35.6176 20.566 35.5801C19.6953 35.5447 18.4839 35.5506 17.492 35.7729L19.2416 43.5793C19.1415 43.6017 19.1861 43.5831 19.4391 43.5716C19.657 43.5616 19.9349 43.561 20.2414 43.5735C20.5463 43.5859 20.8452 43.6097 21.1033 43.6411C21.3775 43.6744 21.5306 43.7071 21.5723 43.718L23.5891 35.9764Z" fill="#D76238" mask="url(#path-1-inside-1_21_146)"/>
<path d="M18.7173 60.5371L22.1144 60.6173" stroke="#D76238" stroke-width="2"/>
<path d="M18.6738 56.5713L22.0709 56.6515" stroke="#D76238" stroke-width="2"/>
<path d="M83.0312 21.8105L86.4283 21.8907" stroke="#D76238" stroke-width="2"/>
<path d="M81.957 17.5469L85.341 17.8552" stroke="#D76238" stroke-width="2"/>
</svg>
