<svg width="103" height="104" viewBox="0 0 103 104" fill="none" xmlns="http://www.w3.org/2000/svg">
<path fill-rule="evenodd" clip-rule="evenodd" d="M49.5799 1.09977C47.8751 1.35304 44.9124 2.80497 43.6154 4.02294C38.6275 8.70629 38.4526 16.1926 43.2197 20.9598C47.9206 25.6606 55.0978 25.6531 59.8227 20.9428C65.4085 15.3742 63.9722 6.04252 56.9622 2.35704C54.6183 1.12476 52.1925 0.711572 49.5799 1.09977ZM54.9179 5.42195C61.1206 8.31446 61.0154 17.2366 54.7446 20.1075C52.8774 20.9623 50.1439 20.9623 48.2767 20.1075C41.8087 17.1464 41.9345 8.00985 48.4812 5.26363C50.3113 4.49587 53.078 4.56401 54.9179 5.42195ZM45.6048 26.1785C43.8246 26.6285 42.7475 27.1155 41.0573 28.2351C38.488 29.9372 36.478 32.6084 35.4606 35.6733L34.8404 37.5416L34.7519 45.8894L34.663 54.2371H51.5106H68.3582L68.2694 45.8894L68.1808 37.5416L67.5607 35.6733C66.932 33.7792 65.6722 31.6617 64.2355 30.0841C63.1036 28.8412 60.6002 27.245 58.7058 26.5583C57.1535 25.9957 56.8321 25.965 51.9649 25.9153C48.2043 25.8767 46.5241 25.9464 45.6048 26.1785ZM56.6135 29.8261C60.2034 30.761 63.2826 33.8007 64.1992 37.3145C64.385 38.0259 64.6148 48.3684 64.486 50.2052C64.4629 50.5364 64.2314 50.6027 63.1004 50.6027H61.7428L61.6808 46.5708L61.6187 42.5389H59.8016H57.9844L57.9224 46.5708L57.8604 50.6027H51.5106H45.1609L45.0989 46.5708L45.0369 42.5389H43.2197H41.4025L41.3405 46.5708L41.2785 50.6027H39.9081H38.538L38.6073 43.9459L38.6768 37.2891L39.5483 35.5266C40.9789 32.6336 43.359 30.6309 46.3101 29.8375C48.065 29.3654 54.8166 29.3579 56.6135 29.8261ZM13.8665 50.937C7.90632 52.6191 4.17473 58.3169 5.16986 64.2161C6.01849 69.2479 10.2303 73.3448 15.1844 73.9581C17.805 74.2824 19.9134 73.9102 22.2205 72.7158C30.8329 68.2578 30.5103 55.9557 21.6699 51.7137C19.8586 50.8446 19.5704 50.7758 17.3907 50.692C15.7738 50.6297 14.6874 50.7053 13.8665 50.937ZM83.425 50.9234C79.6334 51.8656 76.4942 54.7506 75.1239 58.5529C74.3777 60.6224 74.3595 63.9465 75.0823 66.0488C77.8955 74.2302 88.1349 76.7488 94.3438 70.7866C98.0886 67.1909 99.0451 61.9008 96.7963 57.225C94.4344 52.314 88.7017 49.6125 83.425 50.9234ZM20.1723 55.0541C24.1052 56.819 25.9333 61.7389 24.0945 65.6104C23.2513 67.386 21.88 68.7948 20.1844 69.6275C19.0704 70.1747 18.6504 70.251 16.7569 70.2508C15.0197 70.2508 14.39 70.1543 13.5276 69.7558C12.1011 69.0971 10.2648 67.3469 9.52384 65.9397C8.98573 64.9176 8.92327 64.5521 8.9219 62.4144C8.92054 60.3962 8.99913 59.8694 9.43253 58.9899C11.4601 54.8756 16.0369 53.1981 20.1723 55.0541ZM89.8172 55.1445C91.3945 55.9209 92.7374 57.2863 93.5685 58.9581C94.0256 59.8778 94.1007 60.3667 94.0994 62.4144C94.098 64.5521 94.0356 64.9176 93.4974 65.9397C92.7565 67.3469 90.9202 69.0971 89.4937 69.7558C88.6312 70.1543 88.0016 70.2508 86.2644 70.2508C84.3708 70.251 83.9509 70.1747 82.8369 69.6275C81.1413 68.7948 79.77 67.386 78.9268 65.6104C78.3416 64.3783 78.2335 63.8809 78.236 62.4303C78.246 56.3482 84.399 52.4771 89.8172 55.1445ZM49.6935 64.3433V71.2696L42.8222 75.8421C39.0431 78.357 35.8806 80.4788 35.7945 80.5574C35.6157 80.7201 37.3098 83.3841 37.6691 83.5051C37.7988 83.549 40.9062 81.5814 44.5742 79.1325C48.2422 76.6839 51.3637 74.6804 51.5106 74.6804C51.6576 74.6804 54.7791 76.6839 58.4471 79.1325C62.1151 81.5814 65.2225 83.549 65.3522 83.5051C65.7115 83.3841 67.4056 80.7201 67.2268 80.5574C67.1407 80.4788 63.9781 78.357 60.1991 75.8421L53.3278 71.2696V64.3433V57.4171H51.5106H49.6935V64.3433ZM11.4189 75.6858C7.01635 76.6891 3.39538 79.5255 1.5414 83.4234C0.109225 86.4342 0.0615234 86.8329 0.0615234 95.8052V103.869H16.7569H33.4523V95.5781C33.4523 88.1733 33.4076 87.1415 33.0344 85.9243C32.3652 83.7416 31.0637 81.5005 29.5059 79.8487C27.7902 78.0295 26.157 76.9864 23.6827 76.1299C21.97 75.537 21.612 75.4979 17.3248 75.4384C14.095 75.3934 12.388 75.465 11.4189 75.6858ZM80.9264 75.6867C76.6328 76.6677 73.1765 79.2679 71.2335 82.9784C69.5967 86.1044 69.5689 86.3145 69.5689 95.5781V103.869H86.2644H102.96V95.8052C102.96 86.8329 102.912 86.4342 101.48 83.4234C99.8739 80.047 96.8545 77.3998 93.142 76.1137C91.4865 75.5402 91.0892 75.4975 86.8322 75.4384C83.5956 75.3932 81.8974 75.4648 80.9264 75.6867ZM20.8456 79.2352C23.7604 79.6999 26.8589 81.7504 28.2604 84.1421C29.5924 86.4149 29.6889 87.0575 29.7126 93.7927L29.7344 100.007L28.3565 100.075L26.9786 100.143V96.1568V92.1708H25.0478H23.1171V96.1459V100.121H16.7569H10.3968V96.1369V92.1524L8.5228 92.2186L6.64883 92.2844V96.2029V100.121L5.22915 100.121L3.80947 100.121V93.9808C3.80947 88.3686 3.85013 87.7192 4.28149 86.4281C5.49423 82.7987 8.4299 80.1274 12.0781 79.3338C13.7581 78.9683 18.8151 78.9113 20.8456 79.2352ZM90.8371 79.3233C94.5982 80.1206 97.6522 82.8843 98.7814 86.5128C99.1589 87.7255 99.2118 88.6469 99.2118 94.0082V100.121L97.7921 100.121L96.3725 100.121V96.2029V92.2844L94.4985 92.2186L92.6245 92.1524V96.1369V100.121H86.2644H79.9042V96.1459V92.1708H77.9734H76.0427V96.1568V100.143L74.6648 100.075L73.2869 100.007L73.3087 93.7927C73.3323 87.0575 73.4289 86.4149 74.7609 84.1421C76.111 81.8381 79.2552 79.7006 81.9485 79.2556C83.9434 78.9263 89.15 78.9658 90.8371 79.3233Z" fill="#D76238"/>
</svg>
