<svg width="103" height="104" viewBox="0 0 103 104" fill="none" xmlns="http://www.w3.org/2000/svg">
<path d="M27.2561 24.2142L27.4344 23.8525L27.4344 23.8524C28.3277 22.0407 29.606 19.4477 30.8064 17.0126C31.515 15.5753 32.1964 14.193 32.7555 13.0589L35.3704 7.75452L35.5908 6.20272L35.5909 6.20245C35.7995 4.73616 35.7734 4.49532 35.6999 4.12908C35.3943 2.60823 33.7701 1.56966 32.2809 1.9204L27.2561 24.2142ZM27.2561 24.2142L28.4777 15.6592C28.9723 12.195 29.4254 9.139 29.7713 6.91251C29.9444 5.79817 30.0897 4.89799 30.1993 4.26055C30.2544 3.94043 30.2988 3.69669 30.332 3.52915C30.339 3.49396 30.3451 3.46427 30.3503 3.43959C30.4878 3.17369 30.7439 2.84949 31.1081 2.54894C31.5153 2.21295 31.9453 1.99949 32.2808 1.92042L27.2561 24.2142ZM30.0304 40.2598L30.0305 40.26C30.5183 41.7084 31.314 42.6148 32.8289 43.3473L32.829 43.3473L33.5832 43.7121L47.9735 43.7842L62.7602 43.8582L66.3001 43.876L64.1365 46.6778L63.6217 47.3444L63.6216 47.3446C61.2525 50.4118 58.1769 54.461 55.6639 57.8038C54.4073 59.4752 53.294 60.9668 52.4814 62.0688C52.0745 62.6205 51.7465 63.0698 51.5148 63.3934C51.3983 63.5561 51.311 63.6801 51.252 63.7664C51.2385 63.7862 51.2278 63.8022 51.2195 63.8146C50.5227 65.2972 50.5573 67.0716 51.292 68.4924C51.3246 68.5329 51.3714 68.5897 51.4346 68.6646C51.589 68.8479 51.8118 69.1047 52.0981 69.4295C52.6688 70.0771 53.4677 70.9675 54.4233 72.0231C56.3334 74.1329 58.8543 76.8858 61.3954 79.6412C63.9365 82.3965 66.4943 85.1505 68.4777 87.2625C69.47 88.319 70.315 89.2111 70.941 89.8611C71.2546 90.1868 71.5081 90.4463 71.6953 90.6333C71.8129 90.7508 71.8826 90.8174 71.9161 90.8494C71.9467 90.8787 71.947 90.879 71.9259 90.8627C73.9807 92.4522 76.9034 92.2763 78.7822 90.4213L78.7822 90.4213C80.4233 88.801 80.716 85.9336 79.4749 84.0622C79.4749 84.0622 79.4749 84.0622 79.4749 84.0622C79.4742 84.0628 79.4357 84.0132 79.3255 83.8843C79.2008 83.7383 79.026 83.5383 78.8038 83.2876C78.3603 82.7874 77.7458 82.1052 77.003 81.2884C75.5185 79.6559 73.5344 77.4992 71.4097 75.2137L72.6915 74.0222L71.4097 75.2137C69.2808 72.9233 67.3446 70.8328 65.9401 69.3095C65.2381 68.5482 64.6674 67.9268 64.2712 67.4924C64.0737 67.2759 63.9164 67.1023 63.807 66.9799C63.7534 66.9199 63.705 66.8653 63.6675 66.8217C63.6505 66.802 63.6245 66.7715 63.5981 66.7386C63.5875 66.7254 63.5584 66.6889 63.5253 66.6419C63.5112 66.6218 63.4732 66.5675 63.4318 66.4943C63.4118 66.459 63.3723 66.3869 63.3332 66.2911L63.332 66.288C63.3079 66.229 63.2036 65.9738 63.2036 65.6299C63.2036 65.283 63.3124 65.0196 63.326 64.9867L63.3272 64.9839C63.3587 64.9043 63.3894 64.8442 63.4035 64.8174C63.4335 64.7599 63.4605 64.7162 63.4701 64.7008C63.4931 64.6637 63.5137 64.6336 63.5221 64.6214C63.5425 64.5917 63.5642 64.5614 63.5816 64.5374C63.6187 64.4861 63.6691 64.4178 63.729 64.3374C63.8501 64.1747 64.0262 63.9404 64.2496 63.6446C64.6973 63.0519 65.3433 62.2011 66.139 61.1559C67.7308 59.0651 69.9257 56.1915 72.3395 53.0396L73.7289 54.1036L72.3395 53.0396C74.9929 49.5749 77.2291 46.622 78.8365 44.465C79.6408 43.3857 80.2836 42.5111 80.7411 41.8736C80.9704 41.5541 81.1479 41.3014 81.2738 41.116C81.3887 40.9469 81.4275 40.8815 81.4284 40.882C81.4285 40.8821 81.4282 40.8827 81.4276 40.884C82.4936 38.7289 81.8772 36.092 79.9298 34.6086L79.9297 34.6086C79.5301 34.3042 78.87 33.9242 78.5684 33.8025L78.568 33.8024L78.0185 33.5807L59.6648 33.5416L40.9733 33.5019L38.1613 33.4959L39.4085 30.9756L44.0076 21.6827L44.0076 21.6826C47.22 15.192 49.1638 11.2476 50.3284 8.83734C50.9115 7.63057 51.2926 6.82205 51.538 6.27648C51.6607 6.0037 51.7439 5.80868 51.7995 5.66962C51.8496 5.54439 51.8668 5.49009 51.8695 5.48159C51.8699 5.48012 51.87 5.48002 51.8697 5.48115C51.9472 5.19355 51.9446 4.71741 51.7702 4.16582C51.5978 3.62082 51.3102 3.17098 51.0173 2.90641C50.219 2.18523 49.0671 1.97604 48.2587 2.26516L30.0304 40.2598ZM30.0304 40.2598C29.9208 39.9344 29.8336 39.4015 29.8206 38.7926C29.8081 38.2121 29.8662 37.7097 29.9511 37.3951C29.9585 37.3785 29.9857 37.313 30.0483 37.1737C30.1362 36.9786 30.2624 36.706 30.4249 36.3608C30.749 35.6721 31.2061 34.7185 31.7638 33.5673C32.8784 31.266 34.3871 28.1904 36.0205 24.8967C39.2908 18.3023 42.9879 10.8222 44.236 8.27439C44.8542 7.0123 45.4662 5.79656 45.9528 4.8567C46.1965 4.38603 46.4056 3.99064 46.5666 3.69581C46.6955 3.45991 46.7681 3.33619 46.7956 3.28938C46.8076 3.26893 46.811 3.26316 46.8067 3.26913L45.3878 2.24606L46.8065 3.26932M30.0304 40.2598L46.8065 3.26932M10.4641 27.1071L10.4639 27.1072C9.5906 27.2459 8.00331 27.7421 7.45643 28.0202L7.45629 28.0202C4.94527 29.2967 3.02684 31.657 2.25746 34.4524C2.12055 34.9498 2.02919 35.8401 2.03991 36.854C2.05059 37.8629 2.16002 38.7792 2.31456 39.3211C4.15002 45.7558 11.2913 48.5685 16.9786 45.1265L16.9786 45.1265C17.4271 44.8551 18.0679 44.3265 18.7113 43.6741C19.3533 43.0232 19.8827 42.3658 20.1624 41.895C22.664 37.6821 21.7025 32.2726 17.9601 29.2525C16.9056 28.4016 15.3093 27.6025 14.1661 27.3247L10.4641 27.1071ZM10.4641 27.1071C10.797 27.0542 11.4507 27.0352 12.2291 27.0787M10.4641 27.1071L12.2291 27.0787M46.8065 3.26932C47.1128 2.84473 47.4954 2.53828 48.2585 2.26521L46.8065 3.26932ZM12.2291 27.0787C12.9939 27.1215 13.7156 27.2152 14.166 27.3246L12.2291 27.0787ZM30.3736 3.33798C30.3736 3.33847 30.3718 3.34592 30.3682 3.3588C30.3718 3.34393 30.3736 3.33749 30.3736 3.33798ZM51.2441 68.4307C51.2446 68.4312 51.2483 68.4361 51.2545 68.4448C51.2467 68.4346 51.2435 68.4301 51.2441 68.4307ZM51.2524 63.7459C51.2521 63.7465 51.2519 63.747 51.2516 63.7475C51.2519 63.747 51.2521 63.7465 51.2523 63.7461L51.2524 63.7459ZM58.3707 101.142C58.2991 101.135 58.2504 101.129 58.2193 101.125C58.119 101.072 58.0687 101.036 58.0471 101.017C58.0351 100.983 58.0091 100.888 57.9961 100.685L56.2497 100.796L57.9961 100.685C57.9876 100.552 57.9948 100.467 58.003 100.417C58.0107 100.371 58.0196 100.354 58.0202 100.352C58.0204 100.352 58.0212 100.35 58.024 100.346C58.027 100.342 58.0325 100.335 58.042 100.325C58.0498 100.317 58.0613 100.306 58.0775 100.293C58.0899 100.291 58.1034 100.29 58.1179 100.289C58.4776 100.255 59.181 100.227 60.6363 100.209C63.513 100.171 69.0814 100.17 80.1008 100.17L100.682 100.169V100.715V101.262H80.2586C69.2857 101.262 63.757 101.261 60.8934 101.223C59.4461 101.204 58.741 101.176 58.3707 101.142ZM58.0333 101.004C58.0336 101.004 58.0357 101.006 58.0391 101.01C58.0348 101.006 58.0331 101.004 58.0333 101.004ZM58.0514 101.029C58.053 101.031 58.0536 101.033 58.0535 101.033C58.0534 101.033 58.0527 101.032 58.0514 101.029Z" stroke="#D76238" stroke-width="3.5"/>
</svg>
