<svg width="116" height="104" viewBox="0 0 116 104" fill="none" xmlns="http://www.w3.org/2000/svg">
<path fill-rule="evenodd" clip-rule="evenodd" d="M56.0771 0.733961C53.5722 1.43843 51.6481 3.14943 50.4645 5.72492C49.688 7.41453 49.6144 10.2529 50.304 11.9171C51.2565 14.216 53.2803 16.2727 55.1666 16.8585L55.9947 17.1158L56.0669 20.3674L56.1394 23.6192L56.8745 24.2755C57.6847 24.9987 58.4273 25.0986 59.3703 24.6109C60.3415 24.1087 60.5283 23.3977 60.5283 20.206V17.3021L61.955 16.6213C67.4294 14.0084 68.474 6.76227 63.9694 2.64527C61.9267 0.778299 58.6987 -0.00337309 56.0771 0.733961ZM60.0849 5.40667C63.0385 6.89867 63.0385 11.0044 60.0849 12.4964C58.8313 13.1298 57.7989 13.1381 56.5333 12.5255C53.5844 11.0978 53.5736 6.83925 56.5148 5.38326C57.7642 4.76476 58.8281 4.77174 60.0849 5.40667ZM16.7519 15.5558C13.2937 16.7035 11.0265 19.2825 10.5796 22.5774C9.95926 27.1477 12.8517 31.1899 17.417 32.1332C19.0215 32.4645 20.8304 32.2923 22.2256 31.675L23.2335 31.2293L25.5493 33.4821C27.6222 35.4992 27.9506 35.735 28.6838 35.735C29.8848 35.735 30.8189 34.7443 30.8189 33.4701C30.8189 32.5728 30.7 32.4002 28.6388 30.3023L26.459 28.0833L26.9533 26.6764C28.8689 21.222 25.0843 15.5677 19.3576 15.3283C18.3472 15.2862 17.2853 15.3789 16.7519 15.5558ZM95.1389 15.8115C92.7243 16.4761 90.4491 18.513 89.5276 20.8349C88.8385 22.5713 88.827 25.4423 89.5024 27.0698L89.9697 28.1951L87.8693 30.3414C86.7142 31.5219 85.7001 32.7625 85.6157 33.0985C85.1896 34.796 86.6613 36.2851 88.3471 35.862C88.6688 35.7814 89.9096 34.7749 91.1042 33.6257L93.2762 31.5359L94.4015 31.9876C95.2138 32.3137 96.0601 32.4411 97.4425 32.4456C99.1152 32.451 99.5433 32.3648 100.819 31.7661C101.622 31.3889 102.623 30.7893 103.044 30.4333C104.909 28.8564 106.165 25.745 105.913 23.3277C105.347 17.917 100.295 14.3924 95.1389 15.8115ZM20.3947 19.9944C23.1286 21.0273 23.836 24.921 21.6272 26.7797C20.0753 28.0855 18.0398 28.1456 16.5644 26.9296C15.4695 26.027 15.0119 25.0975 15.0119 23.775C15.0119 21.0122 17.837 19.028 20.3947 19.9944ZM99.1458 20.4068C102.217 21.8015 102.205 26.1429 99.126 27.6334C97.185 28.573 94.815 27.736 93.8661 25.7756C93.3005 24.6073 93.2618 23.6453 93.7349 22.513C94.2012 21.3971 94.6811 20.8952 95.752 20.4034C96.8971 19.8776 97.9827 19.8788 99.1458 20.4068ZM52.5383 31.7171C51.9193 31.8352 50.5826 32.3322 49.5678 32.8215C46.0893 34.4983 43.654 37.6716 42.8411 41.5869C42.343 43.985 42.4927 58.1873 43.0351 60.0083C43.5809 61.8406 44.8165 64.277 45.9788 65.8129C46.5536 66.5727 47.024 67.2419 47.024 67.2999C47.024 67.358 46.3281 67.4701 45.4776 67.5491C43.3623 67.7458 40.4006 68.6385 38.1828 69.748C33.1308 72.2754 29.0113 76.7883 27.0019 81.9969C25.6627 85.4675 25.5297 86.6203 25.5297 94.7546V102.121L26.1538 102.745L26.7777 103.369H58.2776H89.7775L90.4014 102.745L91.0255 102.121V94.7546C91.0255 86.6203 90.8925 85.4675 89.5533 81.9969C87.5438 76.7883 83.4244 72.2754 78.3724 69.748C76.1546 68.6385 73.1928 67.7458 71.0776 67.5491C70.2271 67.4701 69.5312 67.358 69.5312 67.2999C69.5312 67.2419 70.0022 66.5727 70.5782 65.8129C71.7834 64.223 73.1654 61.3896 73.6122 59.5926C73.8543 58.6185 73.9201 55.6334 73.9201 45.5871V32.8195L73.2962 32.1953L72.6722 31.5712L63.1679 31.5366C57.8988 31.5174 53.1622 31.5978 52.5383 31.7171ZM69.5312 39.1827C69.5312 44.0363 68.8195 45.7219 66.2692 46.9096C65.1479 47.4318 65.0975 47.4345 56.0831 47.4365L47.024 47.4387V45.6796C47.024 43.4262 47.3767 41.536 48.038 40.2455C48.9963 38.3753 51.1635 36.7004 53.2661 36.205C53.7325 36.0951 57.5826 35.9952 61.8225 35.9826L69.5312 35.9601V39.1827ZM69.4715 54.8661C69.3914 57.4459 69.2572 58.648 68.9568 59.4801C66.5325 66.1939 59.3161 69.1539 53.0762 65.9941C51.6044 65.2491 49.6164 63.356 48.7469 61.8721C47.4611 59.6777 47.2079 58.6565 47.0825 55.1587L46.968 51.9625L56.7304 51.8952L66.4927 51.8276L67.9557 51.136C69.7335 50.2956 69.6219 50.0208 69.4715 54.8661ZM6.60097 54.9642C4.63227 55.6127 2.60888 57.3309 1.68091 59.1425C-1.4917 65.3355 3.66086 72.5275 10.5186 71.4784C13.2435 71.0613 15.8275 69.1327 16.8793 66.7305L17.4271 65.4798L20.5063 65.4057C23.1957 65.3414 23.6639 65.2732 24.2058 64.868C25.3692 63.9981 25.4554 62.5363 24.4055 61.4864C23.8831 60.964 23.7415 60.943 20.7222 60.943H17.5822L16.9225 59.5363C16.1159 57.8163 14.5167 56.194 12.83 55.3849C11.8071 54.8942 11.201 54.7718 9.54963 54.7216C8.29103 54.6836 7.17445 54.7754 6.60097 54.9642ZM104.932 54.9543C102.593 55.7178 100.517 57.5604 99.5615 59.7213L99.0211 60.943H96.0813C92.8517 60.943 92.0982 61.1517 91.632 62.1746C91.2037 63.1143 91.3147 63.8077 92.0192 64.5968L92.6755 65.3319L95.9377 65.4044L99.1998 65.4771L99.3443 66.0522C99.5606 66.9144 100.874 68.8653 101.715 69.5723C105.687 72.9146 111.572 72.1036 114.413 67.8226C117.251 63.5476 115.664 57.7927 111.018 55.5053C109.798 54.9048 109.242 54.7716 107.716 54.714C106.583 54.6714 105.517 54.7635 104.932 54.9543ZM10.8679 59.4522C11.9187 59.8913 12.9943 61.2838 13.1659 62.4274C13.3635 63.7454 13.1125 64.6691 12.3081 65.5851C11.3882 66.6328 10.4738 67.0719 9.21202 67.0719C7.95027 67.0719 7.03581 66.6328 6.11594 65.5851C5.31154 64.6691 5.06058 63.7454 5.25819 62.4274C5.42587 61.3099 6.49204 59.9034 7.50643 59.4616C8.41122 59.0677 9.93743 59.0635 10.8679 59.4522ZM109.096 59.5687C109.556 59.803 110.105 60.1866 110.317 60.4209C110.875 61.038 111.394 62.3916 111.394 63.228C111.394 64.358 110.552 65.8503 109.532 66.5246C107.56 67.8302 104.802 67.0711 103.769 64.938C103.186 63.7335 103.17 62.6934 103.715 61.5057C104.672 59.4218 107.098 58.5485 109.096 59.5687ZM83.9105 61.2806C83.175 61.6804 82.7228 62.7326 82.9135 63.6007C83.2684 65.2171 85.3213 65.8991 86.4997 64.7922C88.4495 62.9603 86.2668 60 83.9105 61.2806ZM61.2587 74.7275L58.2776 77.7088L55.2965 74.7275L52.3152 71.7465H58.2776H64.24L61.2587 74.7275ZM51.5196 77.4702C55.0672 81.0039 57.2609 83.0234 57.6586 83.1213C57.9989 83.2053 58.5562 83.2053 58.8965 83.1213C59.2942 83.0234 61.4891 81.003 65.0387 77.4671L70.562 71.9652L71.6783 72.177C75.7726 72.9535 79.5801 75.2252 82.3848 78.5643C83.9778 80.4612 85.0836 82.5474 85.8734 85.1465C86.459 87.0734 86.4907 87.4288 86.5835 93.072L86.6802 98.9801H58.2994H29.9186V95.7166V92.453H39.4668H49.0152L49.681 91.8928C50.4861 91.2151 50.69 90.343 50.2752 89.3502C49.7048 87.9854 49.4393 87.9516 39.2663 87.9516C28.7311 87.9516 29.7964 88.3002 30.709 85.1504C32.6813 78.3449 37.9043 73.6184 45.1109 72.1176C45.3585 72.0658 45.6596 72.012 45.7803 71.9976C45.9009 71.9832 48.4836 74.446 51.5196 77.4702ZM57.7149 88.1184C55.895 88.5357 55.5247 91.2737 57.1727 92.126C58.3899 92.7555 59.8063 92.3025 60.2927 91.128C60.9791 89.4706 59.4752 87.7146 57.7149 88.1184Z" fill="#D76238"/>
</svg>
