<svg width="127" height="104" viewBox="0 0 127 104" fill="none" xmlns="http://www.w3.org/2000/svg">
<path fill-rule="evenodd" clip-rule="evenodd" d="M56.9705 1.60514C29.9836 8.63204 14.3944 36.3637 22.3594 63.1743C22.812 64.6981 23.01 65.7343 22.8579 65.7851C22.3616 65.9505 19.528 67.8621 18.4772 68.7405C16.9468 70.0198 15.1291 72.3423 13.9899 74.4748C12.9857 76.3537 11.9784 79.2487 11.9784 80.2553C11.9784 80.758 11.8071 80.8415 10.3143 81.0674C4.67711 81.9196 0.740239 85.9632 0.243231 91.4121C-0.194857 96.2148 2.27737 100.543 6.71075 102.734L8.62483 103.68H32.0579H55.4913L57.2996 103.019C59.6141 102.173 61.4389 101.067 63.3197 99.3697L64.8171 98.0182L68.2898 98.0963C81.3348 98.3899 93.7087 93.6117 103.277 84.5854C108.068 80.0657 112.638 73.2299 115.025 67.0131C116.328 63.62 117.525 58.9739 117.574 57.1281C117.616 55.5158 117.584 55.4152 116.812 54.7244C116.172 54.151 115.778 54.0033 114.886 54.0033C113.776 54.0033 113.731 54.0364 110.637 57.1597C105.141 62.7062 99.5996 65.7839 92.2709 67.3599C88.6753 68.1333 82.2147 68.1333 78.619 67.3599C71.3537 65.7977 65.2301 62.4182 60.1631 57.1749C55.1829 52.0214 51.977 45.5524 50.7737 38.2282C50.2574 35.0859 50.4468 28.645 51.1435 25.6521C52.2647 20.8349 54.2436 16.4146 57.0294 12.5043C57.8104 11.4077 59.8229 9.14582 61.5015 7.47778L64.5533 4.44494L64.4224 3.28452C64.3218 2.39084 64.1153 1.96656 63.5241 1.43824C62.4775 0.503389 61.0632 0.539382 56.9705 1.60514ZM26.8689 7.26083C26.171 7.95877 26.0307 8.27975 26.0307 9.17811C26.0307 10.4105 26.4866 11.194 27.5126 11.7245C28.9174 12.4508 30.6384 11.9533 31.327 10.6218C32.3789 8.58767 30.9762 6.42262 28.607 6.42262C27.9123 6.42262 27.5161 6.61369 26.8689 7.26083ZM94.2326 6.79686C90.5504 7.72998 86.8406 10.6388 85.1868 13.8896C84.4744 15.2899 84.2552 15.5389 83.8425 15.4159C83.5713 15.335 82.3754 15.2043 81.1849 15.1255C78.4987 14.9475 76.4359 15.4464 74.4055 16.7659C71.5571 18.6168 69.7515 21.3381 69.1541 24.6808C68.1083 30.5325 72.2417 36.4542 78.246 37.7063C80.3383 38.1427 113.939 38.0717 116.015 37.6267C119.24 36.9352 121.732 35.3554 123.72 32.7404C129.011 25.7845 125.886 15.6774 117.559 12.8125C115.636 12.1508 113.194 11.9647 111.249 12.3315L109.635 12.636L108.13 11.0274C105.261 7.96 102.445 6.67483 98.2646 6.5242C96.5066 6.46084 95.2128 6.54835 94.2326 6.79686ZM51.0796 11.0451C44.5182 21.2155 42.8866 34.4075 46.7604 45.9693C51.3543 59.6814 62.995 69.9061 77.5559 73.0186C79.7402 73.4855 80.9337 73.5745 85.1984 73.5873C89.5253 73.6004 90.6515 73.5218 93.0271 73.0403C98.1534 72.0011 103.205 70.0018 107.149 67.4504C108.124 66.8198 108.964 66.3467 109.017 66.3992C109.207 66.589 106.598 71.371 105.155 73.4784C102.189 77.808 98.664 81.414 94.3684 84.5119C91.8079 86.3584 86.1863 89.2002 83.1029 90.2068C78.9582 91.5595 73.6028 92.4623 69.7214 92.4623H68.0309L68.4648 90.7982C69.0649 88.4981 69.059 84.9204 68.4515 82.5453C66.8389 76.2403 61.647 71.2169 55.3594 69.8783C53.3154 69.4431 49.0164 69.5294 47.4746 70.0368C46.6381 70.3119 46.5681 70.2853 45.5023 69.2866C42.8846 66.8336 38.8359 64.7395 35.5385 64.1336C34.7341 63.9856 32.8377 63.8646 31.3248 63.8646H28.5737L27.9103 61.702C26.4178 56.8365 26.1752 55.0715 26.1747 49.0727C26.1742 43.9934 26.2299 43.2646 26.8339 40.4298C29.2408 29.1334 35.4926 19.7082 44.8293 13.2994C46.8992 11.8789 51.4152 9.38101 51.9139 9.38101C52.0455 9.38101 51.6701 10.1297 51.0796 11.0451ZM10.1097 12.5576C7.70452 14.0244 8.80159 17.7631 11.6372 17.7631C12.5937 17.7631 12.896 17.6344 13.6055 16.9249C15.9707 14.5597 12.9717 10.8126 10.1097 12.5576ZM101.04 12.8036C102.648 13.4974 104.582 15.3745 105.44 17.075C106.589 19.35 107.943 19.7521 110.5 18.5771C114.717 16.6394 119.521 19.0707 120.466 23.6202C121.177 27.0445 119.106 30.6466 115.774 31.7829C114.719 32.1426 110.591 32.4586 110.591 32.1798C110.591 32.0684 110.861 31.3029 111.191 30.4782C112.384 27.4962 112.257 25.1832 110.844 24.1771C110.02 23.5904 108.635 23.5312 107.651 24.0405C106.826 24.4668 106.696 24.7412 106.252 26.9898C105.688 29.8461 104.111 31.5672 101.633 32.0302C99.9292 32.3484 80.9248 32.3551 79.3381 32.038C74.8468 31.1404 73.2537 25.4542 76.6024 22.2729C78.6626 20.3152 81.5229 20.2405 84.1056 22.0767C85.4538 23.0354 86.4898 23.1774 87.6719 22.5663C88.5744 22.0996 89.0276 21.2224 89.245 19.5216C89.6629 16.2514 92.0101 13.5385 95.3768 12.4346C96.7721 11.977 99.5424 12.1575 101.04 12.8036ZM16.2927 26.7376C14.5522 27.5058 13.9699 29.3299 14.9861 30.8293C16.0558 32.4071 18.051 32.608 19.3864 31.2723C19.9858 30.673 20.114 30.3407 20.114 29.3861C20.114 28.0072 19.6253 27.2109 18.4871 26.7354C17.4891 26.3185 17.2416 26.3187 16.2927 26.7376ZM64.6295 44.1287C63.296 45.0079 62.9065 46.4469 63.6254 47.8373C64.3327 49.2048 64.738 49.3192 68.8711 49.3192C73.1018 49.3192 73.8188 49.1249 74.3532 47.8343C75.0014 46.2699 74.4829 44.6743 73.0947 43.9608C72.7052 43.7607 71.2765 43.6556 68.9273 43.6541C65.8055 43.6524 65.2611 43.7126 64.6295 44.1287ZM81.9351 44.0348C81.0833 44.497 80.5143 45.5818 80.5143 46.743C80.5143 47.4377 80.7054 47.8339 81.3525 48.481L82.1907 49.3192H94.8132H107.436L108.274 48.481C109.225 47.5294 109.385 46.3717 108.738 45.12C107.97 43.6344 108.1 43.648 94.7639 43.6588C84.4943 43.6672 82.5053 43.7254 81.9351 44.0348ZM10.6023 58.1867C10.3202 58.3009 9.79314 58.7461 9.43123 59.1761C8.5452 60.2292 8.53706 61.5733 9.41028 62.6112C10.5951 64.0194 12.5006 64.0288 13.7658 62.6327C15.6719 60.5293 13.2446 57.1178 10.6023 58.1867ZM35.039 69.9101C38.5607 70.8092 41.5391 72.8855 43.4889 75.8005C44.956 77.9941 45.7469 80.2331 45.9695 82.8224C46.1596 85.0348 46.6297 85.9287 47.8769 86.4499C49.0295 86.9314 50.4729 86.548 51.1647 85.5769C51.5643 85.0153 51.6698 84.4885 51.6683 83.0561C51.6666 81.2242 51.0318 78.0513 50.3368 76.4C49.8844 75.3251 50.04 75.2051 51.885 75.2051C56.9215 75.2051 61.5602 78.9018 62.8796 83.9673C64.4099 89.8427 60.6493 96.2288 54.7616 97.7524C53.5196 98.0736 51.0742 98.1326 38.95 98.1326H24.6077L23.2854 97.444C21.5707 96.5508 20.4855 94.8473 20.2301 92.6472C20.093 91.4663 19.9059 90.9836 19.3815 90.4593C18.4967 89.5744 17.2118 89.3348 16.1884 89.8639C14.0764 90.9563 13.9571 93.3257 15.7945 97.7011C15.9609 98.0976 15.7454 98.1326 13.1423 98.1326C10.5197 98.1326 10.211 98.0813 8.99068 97.444C5.08685 95.4044 4.82232 90.243 8.48948 87.6641C9.61046 86.8759 10.4363 86.7926 14.3769 87.0709C15.5536 87.154 15.7346 87.0936 16.4488 86.3796C17.1849 85.644 17.2426 85.4537 17.4204 83.1747C17.5244 81.8422 17.7958 80.1974 18.0239 79.5194C19.6189 74.7741 23.4426 71.1859 28.2495 69.9234C30.0475 69.4513 33.2176 69.4449 35.039 69.9101ZM114.166 81.0849C111.466 81.9628 111.349 85.3644 113.982 86.4642C115.066 86.9173 116.24 86.565 117.116 85.5242C118.328 84.0839 117.717 81.9919 115.858 81.2153C114.981 80.8487 114.909 80.843 114.166 81.0849Z" fill="#D76238"/>
</svg>
