<svg width="87" height="104" viewBox="0 0 87 104" fill="none" xmlns="http://www.w3.org/2000/svg">
<path fill-rule="evenodd" clip-rule="evenodd" d="M43.4801 1.01118C39.7914 1.54669 36.589 4.06362 35.2811 7.4552C34.7523 8.8264 34.6186 9.55492 34.6113 11.1058C34.5975 14.0351 35.5219 16.3116 37.5661 18.3822C38.8544 19.6872 40.4558 20.6237 42.2264 21.1075C43.0006 21.319 43.3445 21.3487 44.951 21.3427C46.6473 21.3365 46.8629 21.3135 47.7352 21.0469C51.5725 19.8735 54.4255 16.6732 55.0421 12.8507C55.2272 11.7034 55.1192 9.48085 54.8297 8.47916C53.5637 4.09839 49.7741 1.12223 45.2662 0.96852C44.6017 0.945827 43.7979 0.965053 43.4801 1.01118ZM46.291 5.17005C48.4754 5.68508 50.3138 7.50122 50.879 9.70253C51.3892 11.6901 50.7596 13.9172 49.2625 15.4198C46.7849 17.9068 43.0139 17.9082 40.5287 15.423C38.0122 12.9064 38.0804 8.99051 40.6822 6.61763C41.3468 6.01151 42.5431 5.37125 43.3978 5.16427C44.1569 4.98051 45.4984 4.98314 46.291 5.17005ZM74.6005 13.4788C74.3007 13.6282 73.966 13.8764 73.857 14.0304C73.4522 14.6017 65.7135 27.9823 65.5832 28.3364C65.0904 29.6747 65.8741 31.2045 67.2459 31.5826C67.5807 31.6749 69.856 31.6992 76.0501 31.6765L84.4027 31.6459L84.836 31.4141C85.3343 31.1476 85.7858 30.6505 86.0052 30.127C86.2007 29.6601 86.2005 28.6926 86.0045 28.2268C85.7312 27.5766 77.9305 14.214 77.6429 13.903C76.9587 13.1633 75.6109 12.9753 74.6005 13.4788ZM10.914 17.1554C10.4457 17.3586 1.08708 26.6313 0.693402 27.2821C0.332926 27.8783 0.293737 28.8796 0.604938 29.5446C0.902796 30.181 10.2827 39.4984 10.9101 39.7809C11.532 40.061 12.3909 40.0607 13.0114 39.7801C13.6943 39.4713 22.8874 30.2936 23.2584 29.5503C23.594 28.878 23.61 28.0049 23.299 27.3431C23.0166 26.7423 13.5331 17.3801 12.9677 17.1439C12.4934 16.9457 11.3831 16.952 10.914 17.1554ZM78.3519 23.1774C79.7441 25.5695 80.8831 27.5434 80.8831 27.5638C80.8831 27.5842 78.5861 27.6009 75.7787 27.6009C72.9713 27.6009 70.69 27.5614 70.7093 27.5132C70.7809 27.3338 75.7786 18.7842 75.7993 18.8056C75.8112 18.8179 76.9598 20.7853 78.3519 23.1774ZM15.3755 25.0796L18.7366 28.4418L15.3489 31.8295L11.9612 35.2172L8.53941 31.8031L5.11777 28.3889L8.51294 25.0567C10.3804 23.2238 11.9322 21.7228 11.9614 21.7209C11.9906 21.7189 13.5269 23.2303 15.3755 25.0796ZM42.3871 29.766C36.5199 30.8254 32.5173 35.6355 32.5173 41.627C32.5173 46.3336 34.9268 50.3172 39.0148 52.3694C42.8079 54.2736 47.6414 54.0336 51.3146 51.7586C52.381 51.0982 54.0582 49.5106 54.6926 48.5613C56.6993 45.5579 57.2756 42.0066 56.3491 38.3543C55.2312 33.9473 51.5311 30.5558 46.9705 29.7581C45.8298 29.5586 43.5136 29.5625 42.3871 29.766ZM46.5847 33.8535C49.2702 34.4601 51.4458 36.426 52.2549 38.977C53.1892 41.9228 52.4952 45.1394 50.4826 47.1908C48.9452 48.758 46.9491 49.5594 44.5833 49.5594C40.8624 49.5594 38.0478 47.5063 36.9496 43.991C36.7359 43.3069 36.7034 42.9882 36.7034 41.5745C36.7034 40.1611 36.7359 39.8419 36.9495 39.158C37.368 37.8176 37.8667 36.9913 38.8602 35.9916C39.6439 35.2031 39.9062 35.0146 40.8595 34.5545C42.7056 33.6637 44.6761 33.4223 46.5847 33.8535ZM23.5441 51.1826C21.3717 51.6778 19.7621 53.3407 19.2568 55.6117C18.9923 56.8011 19.0883 58.9524 19.4618 60.2032C20.2315 62.781 21.8541 64.6764 25.5446 67.3086C28.1683 69.18 29.3627 70.9362 29.8807 73.6851C30.1177 74.9419 30.0416 77.8669 29.7254 79.6604C29.4055 81.4743 28.7211 84.1667 28.2234 85.5694C27.9871 86.2352 27.0782 88.2277 26.2036 89.9968C24.1737 94.1031 23.8433 95.1451 23.9693 97.0423C24.1423 99.6495 25.8086 101.847 28.5953 103.143C30.8194 104.177 32.9955 104.097 35.0183 102.907C36.4226 102.08 37.2736 101.108 41.0111 96.0619C42.918 93.4872 44.5094 91.3793 44.5477 91.3778C44.5858 91.3763 45.1508 92.096 45.8032 92.9773C48.4254 96.5196 51.4217 100.494 51.8592 101.01C52.9186 102.259 54.5246 103.308 55.9289 103.667C58.0393 104.207 60.318 103.635 62.3816 102.047C64.5479 100.38 65.5704 97.862 65.118 95.3081C64.9184 94.1811 64.5888 93.365 62.6806 89.2738C59.6306 82.7342 59.1584 81.5282 58.9277 79.6886C58.4501 75.8794 59.7909 71.42 62.2259 68.7193C62.5681 68.3398 63.561 67.4344 64.4323 66.7075C69.1621 62.7612 70.3295 60.9439 70.3189 57.5443C70.313 55.6688 69.8785 54.5072 68.8212 53.5409C67.8062 52.6133 66.882 52.2145 65.0519 51.9146C62.7924 51.5444 61.0833 51.9612 57.7293 53.7004C54.0149 55.6263 51.2088 56.5931 47.8928 57.0893C46.2173 57.3399 42.9273 57.3357 41.2212 57.0808C37.6041 56.5403 34.1734 55.2746 30.2609 53.0373C28.2956 51.9136 27.4668 51.5165 26.6172 51.2921C25.7097 51.0523 24.3312 51.0032 23.5441 51.1826ZM25.7767 55.4286C26.0656 55.5324 26.9403 55.9833 27.7204 56.4305C29.5658 57.4884 32.6426 58.9956 33.9718 59.4926C40.8374 62.0601 47.4238 62.1655 54.2492 59.8172C56.0974 59.1813 57.0655 58.7566 59.2956 57.6036C61.7228 56.3486 62.9322 55.9194 63.8078 56.0024C64.8972 56.1057 65.5474 56.2898 65.8834 56.59C66.192 56.8658 66.2016 56.9019 66.1931 57.761C66.1884 58.2485 66.117 58.8681 66.0346 59.1377C65.7311 60.1305 64.5752 61.3515 61.6435 63.7763C59.5207 65.5321 58.7858 66.2983 57.7555 67.8294C54.8369 72.167 53.9011 77.84 55.301 82.7085C55.6188 83.8135 56.4307 85.6742 58.7385 90.5871C61.0117 95.4261 61.0631 95.557 61.0696 96.5232C61.076 97.4895 60.8587 97.9571 60.0766 98.6605C58.8711 99.7443 57.5649 100.085 56.4853 99.5984C55.6469 99.2202 55.0083 98.4958 52.2948 94.8452C50.8547 92.9078 48.5231 89.7704 47.1133 87.8733L44.5502 84.424L44.133 84.984C42.5683 87.0837 36.7995 94.9065 35.7008 96.4182C34.2293 98.4431 33.4715 99.2357 32.6345 99.6254C31.8138 100.007 31.2807 99.9725 30.2804 99.471C28.4497 98.5532 27.7704 97.3263 28.1812 95.6792C28.2795 95.2854 28.9898 93.6973 29.8717 91.9004C31.4985 88.5856 31.9142 87.6194 32.4254 85.9642C33.6023 82.154 34.1297 79.0874 34.1289 76.0566C34.1281 72.7354 33.4529 70.2654 31.9279 68.0056C30.8645 66.4295 29.7266 65.3368 27.564 63.815C25.9034 62.6463 24.2241 61.0169 23.8084 60.1709C23.0289 58.5845 22.9802 56.4255 23.7057 55.6184C24.088 55.193 24.9113 55.1175 25.7767 55.4286Z" fill="#D76238"/>
</svg>
